<svg width="200" height="200" viewBox="0 0 200 200" fill="none" xmlns="http://www.w3.org/2000/svg">
<mask id="mask0_206_15" style="mask-type:luminance" maskUnits="userSpaceOnUse" x="0" y="23" width="200" height="155">
<path d="M178.242 23L0 54.4288L21.7585 177.827L200 146.398L178.242 23Z" fill="white"/>
</mask>
<g mask="url(#mask0_206_15)">
<path d="M13.2248 96.7022C15.1205 96.3513 16.8472 97.1595 18.1892 98.4512C19.7188 99.9903 20.9043 101.696 22.3893 103.274C24.1476 105.157 25.9782 107.003 27.9168 108.703C32.1534 112.255 36.5281 115.54 41.5198 117.97C45.395 120.075 49.4169 121.864 53.6396 123.161C59.4194 125.16 65.3131 126.17 71.3625 126.935C75.5938 127.444 79.7974 127.329 84.0232 126.852C85.8996 126.586 87.7596 126.11 89.6478 125.929C90.8918 125.966 92.41 126.623 92.584 128.017C92.8737 129.388 91.6436 130.657 90.6544 131.424C86.1212 134.745 80.8958 137.079 75.449 138.426C70.557 139.497 65.6031 140.083 60.5931 139.746C56.6433 139.515 52.6928 138.868 48.8659 137.853C45.4239 136.806 42.0696 135.417 38.8143 133.891C35.3876 132.385 32.071 130.493 29.1319 128.175C25.7152 125.655 22.5089 122.833 19.5581 119.787C15.8726 116.171 12.9071 111.661 10.2645 107.252C9.50493 105.919 8.74644 104.632 8.59545 103.076C8.33566 100.202 10.2361 97.1157 13.2248 96.7022Z" fill="#A9E5FF"/>
<path d="M9.30692 53.0913C11.4422 52.5229 13.6127 53.4971 15.0841 55.0363C17.5954 57.5535 20.027 60.1055 22.8236 62.3153C27.2876 66.0301 32.3279 68.8309 37.6626 71.0867C44.4067 73.8479 51.5179 75.8315 58.7436 76.7775C65.2545 77.6919 71.7733 77.5224 78.2959 76.8485C84.3641 75.9533 90.168 75.3477 96.0199 77.6564C99.0633 79.0107 101.982 81.0006 104.063 83.6246C108.428 89.3606 109.061 97.7966 104.838 103.787C101.621 108.801 96.2646 111.576 90.6681 113.124C80.4568 115.684 69.2752 114.59 59.3782 111.213C53.6842 109.528 48.2691 106.992 43.1801 103.953C38.9602 101.545 34.9791 98.7415 31.2681 95.6038C26.5424 91.5137 22.0581 87.2378 18.0726 82.4071C14.7665 78.1046 11.69 73.7034 9.18945 68.8751C7.66129 65.9448 5.87094 62.752 5.36524 59.4566C4.85317 56.7853 6.65282 53.7888 9.30692 53.0913Z" fill="#A9E5FF"/>
<mask id="mask1_206_15" style="mask-type:luminance" maskUnits="userSpaceOnUse" x="64" y="33" width="119" height="131">
<path d="M134.951 33.342C141.052 33.8798 146.891 36.0126 152.045 39.2903C155.386 41.4591 158.643 43.9272 161.397 46.823C166.332 46.0179 171.356 45.9062 176.302 46.6786C178.452 47.0089 180.674 47.4631 182.689 48.3103C179.505 50.996 176.304 54.0234 173.924 57.4549C171.87 60.6641 170.11 64.0405 168.955 67.6805C167.063 72.8928 166.594 78.7893 166.602 84.3002C166.669 88.8761 167.084 93.3901 166.804 97.972C166.53 102.868 165.942 107.916 164.52 112.621C163.3 117.118 161.682 121.569 159.463 125.674C157.185 130.077 154.39 134.157 151.309 138.034C147.982 142.125 143.952 145.683 139.802 148.92C135.887 151.779 131.716 154.429 127.301 156.441C122.986 158.572 118.464 160.246 113.738 161.189C110.863 161.94 108.047 162.419 105.094 162.721C100.155 163.488 95.3457 163.22 90.3831 162.94C83.5691 162.388 76.806 160.606 70.3908 158.291C68.8444 157.786 67.2437 157.263 65.8066 156.498C65.2103 156.172 64.5024 155.619 64.3649 154.916C64.0607 153.87 65.0032 152.858 65.9137 152.519C68.432 151.849 71.0393 151.876 73.5983 151.318C83.7021 149.842 93.3939 145.656 101.711 139.783C104.943 137.268 108.337 134.544 110.892 131.337C114.291 127.322 117.034 122.717 119.344 118.002C121.17 113.076 122.829 107.761 123.054 102.49C123.45 95.6163 121.99 88.7163 118.79 82.6207C117.273 80.0037 115.575 77.3772 113.46 75.2012C109.797 71.1326 105.028 68.1982 99.9871 66.1477C96.8201 64.9692 93.5654 64.1658 90.2888 63.356C91.5619 60.4284 92.8188 57.3254 94.5462 54.6398C96.6196 51.2145 99.0578 48.027 101.952 45.2488C104.797 42.3658 108.261 40.1995 111.706 38.109C118.783 34.288 126.933 32.5359 134.951 33.342Z" fill="white"/>
<path d="M136.394 51.5986C140.493 49.9985 145.422 52.7096 146.734 56.7916C147.306 58.3043 147.194 59.9756 146.882 61.5311C146.24 64.3337 144.073 66.4631 141.357 67.3187C136.834 68.6232 131.833 65.161 131.198 60.5691C130.9 58.8469 131.32 57.084 132.028 55.5167C132.901 53.6635 134.513 52.3479 136.394 51.5986Z" fill="black"/>
</mask>
<g mask="url(#mask1_206_15)">
<path d="M134.951 33.342C141.052 33.8798 146.891 36.0126 152.045 39.2903C155.386 41.4591 158.643 43.9272 161.397 46.823C166.332 46.0179 171.356 45.9062 176.302 46.6786C178.452 47.0089 180.674 47.4631 182.689 48.3103C179.505 50.996 176.304 54.0234 173.924 57.4549C171.87 60.6641 170.11 64.0405 168.955 67.6805C167.063 72.8928 166.594 78.7893 166.602 84.3002C166.669 88.8761 167.084 93.3901 166.804 97.972C166.53 102.868 165.942 107.916 164.52 112.621C163.3 117.118 161.682 121.569 159.463 125.674C157.185 130.077 154.39 134.157 151.309 138.034C147.982 142.125 143.952 145.683 139.802 148.92C135.887 151.779 131.716 154.429 127.301 156.441C122.986 158.572 118.464 160.246 113.738 161.189C110.863 161.94 108.047 162.419 105.094 162.721C100.155 163.488 95.3457 163.22 90.3831 162.94C83.5691 162.388 76.806 160.606 70.3908 158.291C68.8444 157.786 67.2437 157.263 65.8066 156.498C65.2103 156.172 64.5024 155.619 64.3649 154.916C64.0607 153.87 65.0032 152.858 65.9137 152.519C68.432 151.849 71.0393 151.876 73.5983 151.318C83.7021 149.842 93.3939 145.656 101.711 139.783C104.943 137.268 108.337 134.544 110.892 131.337C114.291 127.322 117.034 122.717 119.344 118.002C121.17 113.076 122.829 107.761 123.054 102.49C123.45 95.6163 121.99 88.7163 118.79 82.6207C117.273 80.0037 115.575 77.3772 113.46 75.2012C109.797 71.1326 105.028 68.1982 99.9871 66.1477C96.8201 64.9692 93.5654 64.1658 90.2888 63.356C91.5619 60.4284 92.8188 57.3254 94.5462 54.6398C96.6196 51.2145 99.0578 48.027 101.952 45.2488C104.797 42.3658 108.261 40.1995 111.706 38.109C118.783 34.288 126.933 32.5359 134.951 33.342Z" fill="#A9E5FF"/>
</g>
</g>
</svg>
