<svg width="200" height="200" viewBox="0 0 200 200" fill="none" xmlns="http://www.w3.org/2000/svg">
<mask id="mask0_44_304" style="mask-type:luminance" maskUnits="userSpaceOnUse" x="7" y="39" width="193" height="149">
<path d="M178.265 39.1953L7.5645 69.2943L28.4023 187.471L199.102 157.372L178.265 39.1953Z" fill="white"/>
</mask>
<g mask="url(#mask0_44_304)">
<path d="M20.23 109.779C22.0455 109.443 23.6991 110.217 24.9843 111.454C26.4492 112.928 27.5845 114.562 29.0067 116.073C30.6906 117.876 32.4437 119.644 34.3003 121.272C38.3577 124.674 42.5473 127.82 47.3277 130.147C51.039 132.163 54.8907 133.876 58.9347 135.118C64.47 137.033 70.1143 138 75.9077 138.733C79.96 139.22 83.9857 139.11 88.0327 138.653C89.8297 138.398 91.611 137.943 93.4193 137.769C94.6107 137.805 96.0647 138.434 96.2313 139.769C96.5087 141.082 95.3307 142.297 94.3833 143.032C90.042 146.212 85.0377 148.447 79.8213 149.737C75.1363 150.763 70.392 151.324 65.594 151.002C61.8113 150.78 58.028 150.161 54.363 149.189C51.0667 148.186 47.8543 146.856 44.7367 145.394C41.455 143.952 38.2787 142.14 35.464 139.92C32.1919 137.507 29.1212 134.804 26.2953 131.887C22.7657 128.424 19.9257 124.105 17.3949 119.882C16.6675 118.606 15.9411 117.373 15.7965 115.883C15.5477 113.131 17.3677 110.175 20.23 109.779Z" fill="#FEFEFE"/>
<path d="M16.4774 68.0133C18.5223 67.469 20.601 68.402 22.0101 69.876C24.4152 72.2867 26.7439 74.7307 29.4222 76.847C33.6973 80.4047 38.5243 83.087 43.6333 85.2473C50.092 87.8917 56.9023 89.7913 63.8223 90.6973C70.0577 91.573 76.3007 91.4107 82.5473 90.7653C88.3587 89.908 93.917 89.328 99.5213 91.539C102.436 92.836 105.231 94.7417 107.224 97.2547C111.404 102.748 112.011 110.827 107.966 116.564C104.885 121.366 99.7557 124.023 94.396 125.506C84.6167 127.958 73.9083 126.91 64.43 123.676C58.977 122.062 53.791 119.633 48.9173 116.723C44.876 114.417 41.0633 111.732 37.5093 108.727C32.9836 104.81 28.689 100.715 24.8722 96.0887C21.706 91.9683 18.7596 87.7533 16.3649 83.1293C14.9014 80.323 13.1868 77.2653 12.7025 74.1093C12.2121 71.551 13.9356 68.6813 16.4774 68.0133Z" fill="#FEFEFE"/>
<mask id="mask1_44_304" style="mask-type:luminance" maskUnits="userSpaceOnUse" x="69" y="48" width="114" height="126">
<path d="M136.805 49.0997C142.648 49.6147 148.24 51.6573 153.176 54.7963C156.376 56.8733 159.495 59.237 162.132 62.0103C166.859 61.2393 171.67 61.1323 176.407 61.872C178.466 62.1883 180.594 62.6233 182.524 63.4347C179.474 66.0067 176.409 68.906 174.129 72.1923C172.162 75.2657 170.477 78.4993 169.371 81.9853C167.559 86.977 167.11 92.624 167.117 97.9017C167.181 102.284 167.579 106.607 167.311 110.995C167.048 115.684 166.485 120.518 165.123 125.024C163.955 129.331 162.405 133.594 160.28 137.525C158.099 141.742 155.422 145.649 152.471 149.362C149.285 153.28 145.426 156.687 141.451 159.787C137.702 162.525 133.707 165.063 129.479 166.99C125.347 169.031 121.016 170.634 116.49 171.537C113.737 172.256 111.04 172.715 108.212 173.004C103.482 173.739 98.876 173.482 94.1233 173.214C87.5977 172.685 81.1207 170.979 74.977 168.762C73.496 168.278 71.963 167.777 70.5867 167.045C70.0157 166.732 69.3377 166.203 69.206 165.53C68.9147 164.528 69.8173 163.559 70.6893 163.234C73.101 162.592 75.598 162.618 78.0487 162.084C87.725 160.67 97.0067 156.661 104.972 151.037C108.067 148.628 111.318 146.02 113.764 142.948C117.02 139.103 119.647 134.693 121.859 130.178C123.608 125.46 125.196 120.37 125.412 115.322C125.791 108.739 124.393 102.131 121.328 96.2933C119.875 93.787 118.249 91.2717 116.224 89.1877C112.716 85.2913 108.149 82.481 103.321 80.5173C100.288 79.3887 97.171 78.6193 94.033 77.8437C95.2523 75.04 96.456 72.0683 98.1103 69.4963C100.096 66.216 102.431 63.1633 105.203 60.5027C107.927 57.7417 111.245 55.667 114.544 53.665C121.322 50.0057 129.127 48.3277 136.805 49.0997Z" fill="white"/>
<path d="M138.187 66.5837C142.113 65.0513 146.833 67.6477 148.09 71.557C148.638 73.0057 148.53 74.6063 148.231 76.096C147.617 78.78 145.541 80.8193 142.94 81.6387C138.609 82.888 133.819 79.5723 133.211 75.1747C132.926 73.5253 133.328 71.837 134.006 70.336C134.842 68.5613 136.386 67.3013 138.187 66.5837Z" fill="black"/>
</mask>
<g mask="url(#mask1_44_304)">
<path d="M136.805 49.0997C142.648 49.6147 148.24 51.6573 153.176 54.7963C156.376 56.8733 159.495 59.237 162.132 62.0103C166.859 61.2393 171.67 61.1323 176.407 61.872C178.466 62.1883 180.594 62.6233 182.524 63.4347C179.474 66.0067 176.409 68.906 174.129 72.1923C172.162 75.2657 170.477 78.4993 169.371 81.9853C167.559 86.977 167.11 92.624 167.117 97.9017C167.181 102.284 167.579 106.607 167.311 110.995C167.048 115.684 166.485 120.518 165.123 125.024C163.955 129.331 162.405 133.594 160.28 137.525C158.099 141.742 155.422 145.649 152.471 149.362C149.285 153.28 145.426 156.687 141.451 159.787C137.702 162.525 133.707 165.063 129.479 166.99C125.347 169.031 121.016 170.634 116.49 171.537C113.737 172.256 111.04 172.715 108.212 173.004C103.482 173.739 98.876 173.482 94.1233 173.214C87.5977 172.685 81.1207 170.979 74.977 168.762C73.496 168.278 71.963 167.777 70.5867 167.045C70.0157 166.732 69.3377 166.203 69.206 165.53C68.9147 164.528 69.8173 163.559 70.6893 163.234C73.101 162.592 75.598 162.618 78.0487 162.084C87.725 160.67 97.0067 156.661 104.972 151.037C108.067 148.628 111.318 146.02 113.764 142.948C117.02 139.103 119.647 134.693 121.859 130.178C123.608 125.46 125.196 120.37 125.412 115.322C125.791 108.739 124.393 102.131 121.328 96.2933C119.875 93.787 118.249 91.2717 116.224 89.1877C112.716 85.2913 108.149 82.481 103.321 80.5173C100.288 79.3887 97.171 78.6193 94.033 77.8437C95.2523 75.04 96.456 72.0683 98.1103 69.4963C100.096 66.216 102.431 63.1633 105.203 60.5027C107.927 57.7417 111.245 55.667 114.544 53.665C121.322 50.0057 129.127 48.3277 136.805 49.0997Z" fill="#FEFEFE"/>
</g>
</g>
</svg>
