<svg width="1646" height="1646" viewBox="0 0 1646 1646" fill="none" xmlns="http://www.w3.org/2000/svg">
<g clip-path="url(#clip0_213_684)">
<path d="M186.973 802.627C186.973 802.627 174.48 827.613 156.631 844.393C138.781 861.169 121.65 872.253 122.005 877.599C122.361 882.945 130.216 882.35 140.925 875.331C140.925 875.331 128.431 884.374 128.787 889.016C129.142 893.658 135.568 894.372 145.922 884.019C145.922 884.019 135.927 895.442 138.426 898.655C140.925 901.868 154.488 889.016 154.488 889.016C154.488 889.016 144.138 903.293 150.208 904.366C156.275 905.436 179.122 879.736 186.976 871.881C194.828 864.03 187.332 872.971 183.763 877.602C180.195 882.234 174.839 892.943 181.62 890.444C188.402 887.946 208.371 861.886 214.093 850.108C219.814 838.329 221.421 826.191 221.865 821.194C222.313 816.193 189.113 793.347 186.973 802.627Z" fill="white"/>
<path d="M685.53 362.016C685.53 362.016 686.353 314.657 679.16 291.1C671.967 267.539 669.109 259.687 672.918 258.496C676.727 257.307 688.387 284.196 688.387 284.196C688.387 284.196 686.007 231.129 692.196 229.938C698.382 228.749 700.288 271.107 700.288 271.107C700.288 271.107 698.622 231.366 704.571 231.126C710.52 230.889 712.38 275.627 712.38 275.627C712.38 275.627 713.614 230.84 719.326 229.911C725.037 228.983 725.752 273.725 725.752 273.725C725.752 273.725 727.18 227.08 732.652 227.321C738.126 227.558 740.743 294.905 740.743 311.803C740.743 328.701 739.792 361.065 737.886 366.062C735.983 371.059 685.504 367.013 685.53 362.016Z" fill="white"/>
<path d="M705.005 317.844C709.841 305.137 697.065 293.875 687.344 288.608C685.948 287.851 684.7 289.981 686.096 290.741C694.866 295.495 707.043 305.578 702.622 317.189C702.059 318.674 704.446 319.316 705.005 317.844Z" fill="black"/>
<path d="M214.089 949.786L245.136 999.071L271.66 967.543L235.464 922.272L214.089 949.786Z" fill="white"/>
<path d="M136.392 978.101C136.392 978.101 129.462 988.375 134.459 986.706C139.456 985.037 171.534 984.668 195.977 954.339C195.977 954.339 210.494 965.404 213.707 963.264C216.92 961.121 244.405 924.711 244.405 920.073C244.405 915.434 211.973 874.284 209.398 877.817C206.824 881.349 136.392 978.101 136.392 978.101Z" fill="#FF9EB3"/>
<path d="M195.977 913.643C195.977 913.643 199.786 943.39 207.637 941.01C215.488 938.63 211.683 924.589 211.683 924.589C211.683 924.589 220.012 926.969 222.392 921.735C224.772 916.501 217.394 911.741 195.977 913.643Z" fill="white"/>
<path d="M133.379 985.718C159.913 949.269 186.446 912.817 212.983 876.368C214.544 874.225 210.975 872.167 209.431 874.291C182.898 910.74 156.364 947.192 129.827 983.641C128.267 985.784 131.835 987.842 133.379 985.718Z" fill="black"/>
<path d="M446.366 1279.76L484.214 1242.77L503.186 1279.59L465.881 1321.06L446.366 1279.76Z" fill="white"/>
<path d="M404.373 1300.66L447.555 1260.97L477.897 1337L452.387 1365.17C452.387 1365.17 453.029 1410.3 431.839 1439.02L404.373 1300.66Z" fill="#FF9EB3"/>
<path d="M427.566 1325.58C427.566 1325.58 425.185 1290.12 434.229 1290.84C443.272 1291.55 441.843 1314.87 441.843 1314.87C441.843 1314.87 459.929 1316.54 458.978 1323.2C458.026 1329.86 443.509 1332.24 427.566 1325.58Z" fill="white"/>
<path d="M402.023 1299.35C411.422 1346.71 420.824 1394.07 430.222 1441.43C430.736 1444.02 434.703 1442.92 434.189 1440.33C424.79 1392.97 415.388 1345.62 405.99 1298.26C405.476 1295.67 401.506 1296.77 402.023 1299.35Z" fill="black"/>
<path d="M178.404 804.415C178.404 804.415 191.691 667.784 232.166 638.646C272.641 609.512 360.893 579.917 415.51 569.741C470.128 559.566 566.778 537.414 608.188 499.572C649.595 461.731 671.914 406.758 677.534 385.34C683.15 363.922 676.526 348.216 700.186 346.073C723.846 343.93 742.409 342.505 745.263 365.348C748.118 388.194 733.62 529 671.618 600.311C609.617 671.622 533.226 688.813 527.873 690.571V758.238L366.887 789.66L357.867 690.571C357.867 690.571 296.205 706.346 272.644 735.033C249.083 763.719 227.751 815.121 224.495 827.972C221.239 840.824 179.118 825.118 178.404 804.415Z" fill="white"/>
<path d="M489.459 570.666C490.858 583.604 474.029 596.031 451.874 598.428C429.719 600.824 410.622 592.282 409.223 579.344C407.823 566.406 424.652 553.979 446.807 551.583C468.963 549.186 488.059 557.729 489.459 570.666Z" fill="#FFE749"/>
<path d="M181.367 780.828C179.309 795.098 178.404 804.412 178.404 804.412C179.118 825.115 221.239 840.821 224.495 827.972C225.473 824.117 228.084 816.78 231.886 807.644C215.627 798.716 193.432 787.102 181.367 780.828Z" fill="#FFE749"/>
<path d="M700.186 346.073C679.516 347.943 681.961 360.172 679.16 377.515C694.428 379.707 728.942 384.471 745.132 385.172C745.721 375.984 745.728 369.074 745.263 365.348C742.409 342.501 723.846 343.93 700.186 346.073Z" fill="#FFE749"/>
<path d="M209.862 774.899C210.132 771.258 211.34 767.281 213.184 763.867C215.297 759.96 214.155 754.903 210.231 752.605C206.485 750.413 201.092 751.634 198.972 755.558C195.687 761.635 193.913 768.025 193.402 774.899C193.073 779.336 197.422 783.129 201.632 783.129C206.36 783.129 209.53 779.349 209.862 774.899Z" fill="#FFE749"/>
<path d="M227.168 726.625C227.313 725.749 227.488 724.883 227.741 724.031C227.866 723.606 228.008 723.185 228.166 722.77C227.748 723.708 227.738 723.754 228.133 722.908C228.577 722.135 229.009 721.374 229.483 720.617C230.023 719.866 229.996 719.896 229.41 720.702C229.7 720.367 230 720.041 230.312 719.725C233.288 716.61 233.637 711.139 230.312 708.084C227.086 705.125 221.852 704.759 218.675 708.084C214.952 711.979 212.18 716.897 211.298 722.25C210.6 726.48 212.4 731.316 217.046 732.373C221.012 733.278 226.421 731.168 227.168 726.625Z" fill="#FFE749"/>
<path d="M251.746 678.67C252.092 677.979 252.467 677.307 252.899 676.662C253.04 676.448 253.758 675.454 253.014 676.458C252.204 677.548 253.248 676.247 253.369 676.116C253.788 675.668 254.558 675.214 254.867 674.703C254.548 675.23 253.511 675.671 254.643 674.914C255.002 674.677 255.368 674.457 255.74 674.239C259.463 672.073 261.096 666.71 258.693 662.981C256.273 659.228 251.414 657.71 247.431 660.028C243.279 662.444 239.698 666.055 237.535 670.365C235.603 674.206 236.389 679.46 240.488 681.627C244.224 683.598 249.682 682.779 251.746 678.67Z" fill="#FFE749"/>
<path d="M286.467 691.17C286.931 690.65 287.405 690.146 287.922 689.672C288.179 689.435 288.442 689.208 288.712 688.987C287.725 689.731 287.59 689.847 288.301 689.333C288.897 688.971 289.466 688.579 290.085 688.25C290.391 688.085 290.704 687.934 291.02 687.786C289.848 688.26 289.677 688.339 290.503 688.023C292.557 687.253 294.279 686.193 295.421 684.24C296.452 682.476 296.89 679.875 296.251 677.9C294.98 673.973 290.441 670.533 286.128 672.152C281.825 673.769 277.918 676.06 274.83 679.526C271.969 682.739 271.426 688.039 274.83 691.163C277.957 694.041 283.409 694.604 286.467 691.17Z" fill="#FFE749"/>
<path d="M303.487 650.237C304.442 649.707 305.413 649.23 306.384 648.729C307.865 647.969 305.716 648.904 307.421 648.275C309.212 647.613 311.022 647.044 312.876 646.583C317.053 645.539 319.97 640.618 318.623 636.46C317.224 632.134 312.978 629.593 308.501 630.712C303.859 631.871 299.362 633.701 295.181 636.026C291.415 638.119 289.855 643.604 292.228 647.287C294.684 651.096 299.461 652.479 303.487 650.237Z" fill="#FFE749"/>
<path d="M332.404 672.376C334.468 671.582 336.529 670.792 338.593 669.999C340.65 669.209 342.362 668.182 343.511 666.216C344.545 664.452 344.979 661.851 344.341 659.876C343.076 655.975 338.52 652.476 334.218 654.128C332.154 654.922 330.093 655.715 328.029 656.505C325.971 657.295 324.259 658.322 323.11 660.288C322.077 662.052 321.642 664.653 322.281 666.628C323.545 670.529 328.101 674.028 332.404 672.376Z" fill="#FFE749"/>
<path d="M239.273 762.392C240.386 759.854 241.498 757.316 242.611 754.781C243.533 752.681 244.076 750.745 243.441 748.441C242.914 746.531 241.439 744.464 239.658 743.523C236.093 741.64 230.243 742.265 228.396 746.475C227.284 749.014 226.171 751.552 225.058 754.087C224.136 756.187 223.593 758.123 224.229 760.427C224.755 762.336 226.23 764.404 228.011 765.345C231.58 767.228 237.426 766.6 239.273 762.392Z" fill="#FFE749"/>
<path d="M364.573 657.167C365.136 660.511 365.702 663.853 366.265 667.197C366.983 671.454 372.458 674.219 376.388 672.945C380.984 671.457 382.906 667.382 382.136 662.822C381.573 659.478 381.007 656.136 380.444 652.792C379.726 648.535 374.252 645.77 370.321 647.044C365.722 648.529 363.803 652.604 364.573 657.167Z" fill="#FFE749"/>
<path d="M389.434 690.857C388.578 696.75 388.605 702.234 389.803 708.097C390.666 712.324 395.897 715.149 399.926 713.845C404.403 712.397 406.599 708.249 405.674 703.722C405.684 703.775 405.239 701.178 405.374 702.261C405.259 701.349 405.213 700.414 405.183 699.495C405.157 698.57 405.167 697.645 405.213 696.724C405.223 696.5 405.47 694.093 405.302 695.236C405.917 690.995 404.258 686.183 399.554 685.113C395.66 684.221 390.096 686.301 389.434 690.857Z" fill="#FFE749"/>
<path d="M375.177 744.925C375.364 748.754 375.552 752.582 375.743 756.407C375.973 761.105 379.341 764.292 383.973 764.637C388.46 764.97 393.279 760.499 392.723 755.861C392.213 751.601 389.303 747.417 384.493 747.631C380.474 747.812 375.713 751.282 376.263 755.861C376.276 755.966 376.289 756.072 376.303 756.18C377.106 754.241 377.909 752.302 378.712 750.36C378.633 750.442 378.551 750.528 378.472 750.61C380.411 749.807 382.35 749.004 384.292 748.2C384.187 748.194 384.078 748.184 383.973 748.177C386.715 750.92 389.461 753.665 392.203 756.407C392.015 752.579 391.828 748.75 391.637 744.925C391.426 740.632 388.002 736.488 383.407 736.695C379.127 736.886 374.95 740.319 375.177 744.925Z" fill="#FFE749"/>
<path d="M421.502 621.172C421.492 624.178 421.963 627.272 423.095 630.067C423.935 632.135 424.876 633.814 426.878 634.985C428.642 636.019 431.243 636.457 433.218 635.815C437.053 634.574 440.701 629.962 438.966 625.692C438.567 624.714 438.238 623.724 438.018 622.69C437.975 622.502 437.939 622.315 437.909 622.127C437.8 621.495 437.837 621.752 438.014 622.894C437.86 622.828 437.958 621.304 437.958 621.176C437.972 616.87 434.163 612.748 429.728 612.946C425.264 613.143 421.515 616.56 421.502 621.172Z" fill="#FFE749"/>
<path d="M459.014 630.953C459.87 635.887 460.723 640.822 461.579 645.757C462.339 650.138 467.715 652.601 471.701 651.505C476.333 650.231 478.21 645.776 477.449 641.382C476.593 636.447 475.741 631.512 474.885 626.578C474.124 622.196 468.749 619.733 464.762 620.83C460.133 622.104 458.254 626.558 459.014 630.953Z" fill="#FFE749"/>
<path d="M483.74 596.433C484.043 598.974 484.343 601.512 484.646 604.054C484.912 606.312 485.386 608.202 487.055 609.874C488.484 611.303 490.825 612.376 492.876 612.284C496.898 612.103 501.649 608.633 501.106 604.054C500.803 601.512 500.503 598.974 500.2 596.433C499.934 594.174 499.46 592.285 497.791 590.613C496.362 589.184 494.021 588.111 491.97 588.203C487.947 588.384 483.197 591.854 483.74 596.433Z" fill="#FFE749"/>
<path d="M563.002 652.924C566.873 651.271 570.745 649.622 574.616 647.969C578.593 646.274 579.768 640.121 577.569 636.707C574.906 632.576 570.563 631.94 566.307 633.754C562.436 635.407 558.564 637.056 554.693 638.709C550.716 640.404 549.541 646.557 551.74 649.967C554.406 654.102 558.749 654.737 563.002 652.924Z" fill="#FFE749"/>
<path d="M559.022 610.717C563.746 609.341 568.305 607.273 572.344 604.455C575.87 601.999 577.839 597.137 575.297 593.197C573.039 589.694 567.815 587.61 564.039 590.244C562.412 591.376 560.73 592.403 558.949 593.276C558.597 593.453 558.238 593.621 557.876 593.783C558.633 593.477 558.558 593.503 557.649 593.858C556.651 594.207 555.657 594.546 554.643 594.843C550.512 596.044 547.513 600.693 548.896 604.966C550.255 609.163 554.594 612.007 559.022 610.717Z" fill="#FFE749"/>
<path d="M540.88 577.678C545.004 576.253 549.129 574.827 553.257 573.402C557.316 572 560.434 567.697 559.005 563.279C557.705 559.259 553.238 556.023 548.882 557.531C544.758 558.957 540.633 560.382 536.504 561.808C532.445 563.21 529.328 567.513 530.757 571.93C532.057 575.95 536.521 579.183 540.88 577.678Z" fill="#FFE749"/>
<path d="M602.433 576.542C606.917 573.909 611.322 571.15 615.644 568.26C619.334 565.794 620.938 561.001 618.597 557.001C616.454 553.337 611.049 551.569 607.335 554.048C603.013 556.935 598.608 559.697 594.124 562.331C590.296 564.579 588.926 569.751 591.171 573.593C593.42 577.431 598.585 578.801 602.433 576.542Z" fill="#FFE749"/>
<path d="M629.273 527.083C633.398 523.686 637.724 520.582 642.207 517.672C645.934 515.255 647.478 510.373 645.16 506.413C642.991 502.706 637.645 501.031 633.898 503.46C628.243 507.131 622.834 511.157 617.633 515.446C614.199 518.274 614.703 524.154 617.633 527.087C621.03 530.477 625.833 529.918 629.273 527.083Z" fill="#FFE749"/>
<path d="M634.981 603.708C638.471 600.851 641.957 597.99 645.447 595.132C648.791 592.393 648.502 586.297 645.447 583.492C641.895 580.229 637.375 580.568 633.809 583.492C630.323 586.349 626.834 589.21 623.344 592.067C619.999 594.806 620.289 600.903 623.344 603.708C626.896 606.97 631.416 606.631 634.981 603.708Z" fill="#FFE749"/>
<path d="M678.729 554.16C681.609 551.01 684.49 547.859 687.374 544.709C690.28 541.532 690.748 536.169 687.374 533.072C684.21 530.165 678.837 529.678 675.733 533.072C672.853 536.222 669.972 539.373 667.092 542.52C664.185 545.696 663.717 551.059 667.092 554.16C670.252 557.067 675.624 557.554 678.729 554.16Z" fill="#FFE749"/>
<path d="M678.725 466.455C680.842 463.634 682.814 460.72 684.641 457.705C686.876 454.021 685.576 448.497 681.688 446.443C677.688 444.329 672.813 445.462 670.426 449.396C668.599 452.411 666.627 455.325 664.511 458.146C663.312 459.742 663.177 462.659 663.681 464.486C664.208 466.396 665.683 468.463 667.464 469.404C671.786 471.689 675.957 470.145 678.725 466.455Z" fill="#FFE749"/>
<path d="M720.768 454.851C721.903 451.368 723.039 447.885 724.171 444.405C725.508 440.31 722.618 435.237 718.424 434.282C713.907 433.252 709.729 435.645 708.301 440.03C707.165 443.513 706.029 446.996 704.897 450.479C703.56 454.574 706.451 459.647 710.645 460.602C715.161 461.629 719.339 459.236 720.768 454.851Z" fill="#FFE749"/>
<path d="M708.123 412.561C709.331 409.052 710.543 405.54 711.751 402.03C713.153 397.955 710.148 392.852 706.003 391.907C701.424 390.864 697.381 393.293 695.88 397.655C694.672 401.164 693.46 404.677 692.252 408.186C690.85 412.262 693.855 417.364 698 418.309C702.576 419.353 706.619 416.923 708.123 412.561Z" fill="#FFE749"/>
<path d="M681.313 510.561C685.023 506.505 688.733 502.449 692.443 498.394C695.35 495.217 695.817 489.854 692.443 486.756C689.276 483.85 683.907 483.366 680.803 486.756C677.093 490.812 673.383 494.868 669.672 498.92C666.766 502.097 666.298 507.463 669.672 510.561C672.839 513.464 678.209 513.952 681.313 510.561Z" fill="#FFE749"/>
<path d="M365.281 618.68C365.541 618.542 366.071 618.394 366.265 618.183C365.808 618.673 364.787 618.733 366.104 618.328C366.759 618.127 369.287 617.765 366.887 618.032C369.136 617.781 371.049 617.278 372.708 615.622C374.136 614.193 375.21 611.852 375.117 609.802C374.936 605.749 371.47 601.065 366.887 601.572C363.286 601.97 360.201 602.76 356.972 604.469C353.16 606.483 351.682 612.103 354.019 615.73C356.518 619.602 361.202 620.833 365.281 618.68Z" fill="#FFE749"/>
<path d="M351.497 636.167C355.942 692.25 360.386 748.329 364.83 804.412C365.037 807.035 369.156 807.055 368.945 804.412C364.501 748.329 360.057 692.25 355.612 636.167C355.405 633.547 351.287 633.524 351.497 636.167Z" fill="black"/>
<path d="M432.563 516.223C432.563 516.223 427.315 533.118 405.667 543.59C384.016 554.061 344.989 555.964 329.757 525.026C314.528 494.088 325.948 474.589 329.757 459.591C333.566 444.593 324.045 443.638 305.959 441.021C287.873 438.404 264.075 396.042 294.536 374.624C324.997 353.207 349.746 354.158 352.6 334.643C355.458 315.128 341.177 302.279 324.519 307.514C307.862 312.748 284.538 294.188 304.53 268.487C324.519 242.786 363.072 221.369 390.679 237.075C418.285 252.781 406.385 268.487 397.342 281.813C388.299 295.139 388.717 308.465 402.787 300.373C416.857 292.282 443.614 265.152 463.313 294.188C483.013 323.22 464.38 350.826 446.807 359.87C429.235 368.913 423.638 375.457 430.242 379.266C436.846 383.075 445.474 368.913 459.333 384.978C470.516 397.935 450.646 416.63 443.268 418.711C435.894 420.795 432.563 516.223 432.563 516.223Z" fill="#FF9EB3"/>
<path d="M265.326 283.963C285.731 283.963 302.272 266.062 302.272 243.981C302.272 221.9 285.731 204 265.326 204C244.921 204 228.38 221.9 228.38 243.981C228.38 266.062 244.921 283.963 265.326 283.963Z" fill="#FF9EB3"/>
<path d="M420.666 510.633L426.14 571.674C426.14 571.674 427.911 581.668 441.84 583.097C455.768 584.526 468.976 579.528 470.046 572.743C471.115 565.962 468.261 525.029 468.261 525.029L420.666 510.633Z" fill="white"/>
<path d="M406.684 495.46C406.684 495.46 418.233 518.712 431.825 525.915C445.418 533.118 456.66 538.118 476.472 533.832C496.283 529.549 501.817 495.164 501.639 476.123C501.461 457.082 490.574 425.315 485.755 423.886C480.936 422.457 428.998 427.099 424.892 427.991C420.787 428.883 412.755 458.689 412.755 458.689C412.755 458.689 402.461 487.968 406.684 495.46Z" fill="white"/>
<path d="M444.928 489.93C445.188 495.247 441.092 499.77 435.776 500.03C430.459 500.29 425.939 496.195 425.676 490.878C425.416 485.561 429.511 481.038 434.828 480.778C440.144 480.515 444.664 484.613 444.928 489.93Z" fill="#FF9EB3"/>
<path d="M495.582 475.725C495.822 480.594 492.362 484.719 487.859 484.943C483.352 485.163 479.507 481.397 479.266 476.528C479.026 471.659 482.486 467.535 486.989 467.311C491.496 467.09 495.341 470.856 495.582 475.725Z" fill="#FF9EB3"/>
<path d="M462.332 459.594C462.767 463.847 463.205 468.101 463.639 472.354C463.959 475.485 468.9 475.517 468.577 472.354C468.143 468.101 467.705 463.847 467.27 459.594C466.948 456.463 462.006 456.43 462.332 459.594Z" fill="black"/>
<path d="M428.184 465.921C428.78 472.338 433.205 478.115 440.21 476.976C447.512 475.788 449.905 468.407 448.466 461.895C447.897 459.311 443.927 460.404 444.5 462.988C445.375 466.952 444.44 471.893 439.901 472.864C436.928 473.5 434.63 472.216 433.35 469.543C432.948 468.703 432.701 467.818 432.484 466.919C432.385 466.511 432.276 465.665 432.299 465.918C432.056 463.308 427.941 463.281 428.184 465.921Z" fill="black"/>
<path d="M473.696 453.837C474.095 458.676 477.11 463.847 482.67 462.84C488.415 461.8 489.755 455.509 488.777 450.554C488.369 448.477 485.192 449.356 485.604 451.43C486.183 454.37 485.801 458.719 482.335 459.558C478.75 460.424 477.202 456.454 476.988 453.84C476.814 451.739 473.522 451.72 473.696 453.837Z" fill="black"/>
<path d="M449.339 491.714C449.339 491.714 451.88 513.31 464.798 512.777C477.716 512.24 477.538 491.714 477.183 486.362C477.183 486.362 468.258 500.102 449.339 491.714Z" fill="white"/>
<path d="M448.104 491.714C449.184 500.448 453.507 513.919 464.242 514.004C477.571 514.113 479 496.109 478.417 486.358C478.345 485.117 476.807 484.702 476.116 485.736C470.204 494.585 458.398 494.14 449.668 490.523C448.203 489.917 447.561 492.304 449.013 492.903C458.886 496.991 471.711 496.767 478.249 486.98C477.482 486.773 476.715 486.566 475.948 486.358C476.442 494.578 475.843 511.7 464.242 511.535C455.133 511.407 451.489 499.118 450.573 491.714C450.382 490.157 447.91 490.137 448.104 491.714Z" fill="black"/>
<path d="M404.719 481.614C404.719 481.614 419.474 476.482 423.994 462.442C428.517 448.401 426.851 435.312 426.851 435.312C426.851 435.312 453.029 446.258 467.784 439.358C482.539 432.458 487.424 429.838 487.424 429.838C487.424 429.838 502.926 460.111 501.497 482.48C501.497 482.48 508.476 477.404 504.193 450.989C499.911 424.574 492.533 411.515 461.121 398.663C442.903 391.209 408.492 399.825 395.304 415.188C382.113 430.552 371.773 453.609 382.656 478.609C393.536 503.612 404.719 481.614 404.719 481.614Z" fill="#FF9EB3"/>
<path d="M390.679 508.135C401.982 508.135 411.145 498.972 411.145 487.668C411.145 476.365 401.982 467.202 390.679 467.202C379.375 467.202 370.212 476.365 370.212 487.668C370.212 498.972 379.375 508.135 390.679 508.135Z" fill="white"/>
<path d="M380.217 487.668C380.941 474.217 400.413 474.184 401.137 487.668C401.253 489.775 404.545 489.788 404.429 487.668C404.028 480.232 398.451 473.881 390.675 473.914C382.9 473.95 377.326 480.179 376.921 487.668C376.813 489.785 380.105 489.778 380.217 487.668Z" fill="black"/>
<path d="M382.073 441.571C388.878 413.868 416.633 399.361 443.272 398.462C445.912 398.373 445.925 394.258 443.272 394.347C414.829 395.308 385.365 410.925 378.107 440.478C377.475 443.049 381.441 444.145 382.073 441.571Z" fill="black"/>
<path d="M419.243 517.056C426.756 527.518 440.447 533.069 452.591 535.422C454.662 535.824 455.548 532.65 453.467 532.249C442.264 530.076 429.07 525.122 422.084 515.394C420.86 513.689 418.006 515.331 419.243 517.056Z" fill="black"/>
<path d="M247.477 1026.27L285.671 976.649L317.619 1016.81C317.619 1016.81 325.474 929.59 333.563 882.945C341.654 836.301 352.906 789.983 359.523 788.333C366.14 786.684 407.471 774.898 407.471 774.898L413.39 713.904L414.76 648.371C414.76 648.371 536.3 618.361 538.69 624.527C541.08 630.692 552.958 688.757 538.69 747.298C538.69 747.298 583.439 868.665 603.905 931.966C624.371 995.268 633.888 1086.17 622.942 1118.06C611.997 1149.95 543.457 1255.61 525.371 1273.22C507.285 1290.83 489.676 1217.54 489.676 1217.54C489.676 1217.54 512.045 1172.8 512.996 1143.29C513.948 1113.78 504.905 1043.08 473.492 997.994C473.492 997.994 418.085 1126.05 395.436 1144.24C372.787 1162.44 352.785 1170.74 333.563 1160.9C314.341 1151.07 285.015 1104.26 268.832 1070C252.652 1035.73 247.477 1026.27 247.477 1026.27Z" fill="#0067B0"/>
<path d="M445.388 673.103C445.57 694.972 456.897 741.468 487.78 736.836C518.668 732.201 515.844 684.424 509.573 663.487C509.227 662.329 508.167 661.881 507.041 662.049C486.993 665.071 466.948 668.093 446.899 671.118C444.289 671.51 445.398 675.477 447.992 675.085C456.654 673.778 465.315 672.474 473.973 671.168C480.952 670.114 487.931 669.064 494.913 668.011C497.422 667.632 504.74 665.137 507.117 666.17C507.1 666.164 507.973 672.369 508.071 673.739C508.641 681.587 510.244 688.582 509.655 696.493C508.727 708.953 504.572 725.305 492.135 731.052C462.234 744.872 449.658 692.006 449.5 673.1C449.48 670.457 445.365 670.453 445.388 673.103Z" fill="black"/>
<path d="M450.172 692.556C470.487 689.432 490.805 686.307 511.12 683.183C513.73 682.782 512.621 678.815 510.027 679.217C489.709 682.341 469.394 685.465 449.079 688.589C446.468 688.987 447.578 692.954 450.172 692.556Z" fill="black"/>
<path d="M241.466 1016.14C254.156 1049.3 269.168 1082.1 287.221 1112.68C301.047 1136.11 319.502 1167.35 349.95 1168.89C367.895 1169.79 383.528 1159.79 395.755 1147.51C421.89 1121.26 438.317 1085.15 452.631 1051.59C466.177 1019.83 477.676 987.21 488.254 954.349C495.417 932.102 502.12 909.706 508.519 887.225C509.599 883.429 512.397 872.809 514.04 869.382C512.019 866.413 510.195 870.541 512.657 870.755C514.313 870.554 515.969 870.353 517.625 870.149C521.552 868.866 526.49 869.07 530.609 868.569C534.763 868.062 534.812 861.475 530.609 861.985C523.929 862.798 517.253 863.611 510.573 864.425C509.105 864.602 507.821 865.323 507.4 866.841C490.482 927.713 472.172 988.615 447.532 1046.88C434.179 1078.44 419.046 1111.64 396.064 1137.55C385.076 1149.93 370.851 1161.83 353.505 1162.36C325.109 1163.22 307.615 1133.77 294.763 1112.47C276.097 1081.55 260.724 1048.12 247.816 1014.39C246.318 1010.47 239.948 1012.17 241.466 1016.14Z" fill="black"/>
<path d="M353.555 854.542C373.606 852.659 389.895 835.672 398.125 818.495C406.573 800.856 409.012 780.663 411.352 761.451C414.463 735.918 415.882 710.185 416.821 684.49C416.916 681.84 412.801 681.847 412.706 684.49C411.273 723.659 410.905 765.921 399.412 803.684C393.197 824.111 377.116 848.218 353.555 850.43C350.941 850.674 350.915 854.789 353.555 854.542Z" fill="black"/>
<path d="M353.555 791.717C363.52 790.766 373.778 786.875 383.42 784.373C404.466 778.918 425.482 773.361 446.498 767.794C477.423 759.604 508.335 751.371 539.237 743.098C541.791 742.413 540.708 738.443 538.144 739.131C508.305 747.117 478.46 755.067 448.601 762.981C427.756 768.505 406.905 774.019 386.034 779.445C375.631 782.151 364.303 786.575 353.558 787.602C350.941 787.852 350.915 791.967 353.555 791.717Z" fill="black"/>
<path d="M275.498 1008.6C275.498 1008.6 308.784 1099.03 336.404 1098.08C364.023 1097.13 380.763 943.87 387.624 875.331" stroke="white" stroke-width="1.5" stroke-miterlimit="10" stroke-linecap="round" stroke-dasharray="6 6.5 3.25 6.5 3.25 6.5"/>
<path d="M318.725 1047.62C319.042 1036.12 319.361 1024.62 319.677 1013.12C319.749 1010.47 315.634 1010.47 315.562 1013.12C315.246 1024.62 314.927 1036.12 314.61 1047.62C314.538 1050.27 318.653 1050.27 318.725 1047.62Z" fill="black"/>
<path d="M375.417 592.67C375.417 592.67 367.118 575.242 368.784 573.576C370.449 571.911 384.49 565.06 386.87 569.435C389.25 573.813 433.988 673.762 433.988 673.762C433.988 673.762 439.223 684.767 432.086 690.567C424.945 696.368 417.969 692.049 407.488 668.241C397.006 644.433 375.417 592.67 375.417 592.67Z" fill="#0067B0"/>
<path d="M425.814 670.16C425.814 673.005 423.507 675.312 420.662 675.312C417.818 675.312 415.51 673.005 415.51 670.16C415.51 667.316 417.818 665.008 420.662 665.008C423.51 665.008 425.814 667.316 425.814 670.16Z" fill="black"/>
<path d="M368.109 580.071C378.475 605.894 389.085 631.637 400.282 657.114C405.894 669.89 418.674 713.904 436.839 686.923C438.324 684.721 434.759 682.66 433.287 684.846C422.19 701.332 416.363 682.39 412.287 673.745C406.549 661.575 401.243 649.2 395.976 636.822C387.808 617.626 379.851 598.339 372.079 578.978C371.105 576.552 367.121 577.612 368.109 580.071Z" fill="black"/>
<path d="M510.573 654.978L502.877 569.435C502.877 569.435 497.293 541.687 499.911 540.258C502.528 538.829 514.135 536.094 514.758 538.889C515.38 541.683 529.42 648.367 529.42 648.367C529.42 648.367 532.771 660.693 525.503 662.111C518.234 663.53 511.653 663.952 510.777 656.364" fill="#0067B0"/>
<path d="M520.351 648.371C523.196 648.371 525.503 646.064 525.503 643.219C525.503 640.373 523.196 638.067 520.351 638.067C517.505 638.067 515.199 640.373 515.199 643.219C515.199 646.064 517.505 648.371 520.351 648.371Z" fill="black"/>
<path d="M499.581 555.609C501.675 579.035 503.772 602.46 505.876 625.886C506.702 635.068 506.261 645.53 508.466 654.487C511.403 666.411 517.52 664.413 528.416 661.977C531 661.4 529.907 657.43 527.323 658.01C513.072 661.193 512.44 653.058 511.459 642.178C510.438 630.88 509.424 619.582 508.411 608.284C506.837 590.724 505.263 573.168 503.696 555.609C503.463 552.992 499.348 552.969 499.581 555.609Z" fill="black"/>
<path d="M235.994 1034.3C235.994 1034.3 222.668 1010.98 225.522 1004.79C228.38 998.603 265.504 947.676 271.689 951.007C277.875 954.339 295.01 964.811 293.584 972.425C292.156 980.039 250.275 1047.62 235.994 1034.3Z" fill="#FFFDFE"/>
<path d="M237.772 1033.26C234.118 1026.78 229.723 1019.51 228.182 1012.2C226.431 1003.9 231.487 999.018 236.119 992.569C242.338 983.911 260.546 952.43 272.809 953.983C276.594 954.464 284.67 961.473 286.823 964.007C291.596 969.62 291.099 971.971 289.183 977.409C286.806 984.148 281.342 990.943 277.388 996.832C272.565 1004.02 248.961 1041.4 237.035 1032.52C234.908 1030.94 232.854 1034.51 234.957 1036.07C249.873 1047.18 271.821 1012.08 278.214 1002.91C283.728 994.988 292.946 984.388 294.997 974.71C296.942 965.522 288.893 959.813 281.993 954.951C274.596 949.733 271.752 946.899 264.615 952.16C254.107 959.909 246.005 972.468 238.233 982.802C233.282 989.386 224.285 998.027 223.083 1006.5C221.832 1015.35 230.082 1028 234.22 1035.34C235.52 1037.64 239.076 1035.57 237.772 1033.26Z" fill="#0567A9"/>
<path d="M498.959 1300.24C498.959 1300.24 463.978 1238.84 464.689 1229.92C465.404 1220.99 480.754 1204.57 487.177 1203.5C493.603 1202.43 501.099 1217.42 515.021 1239.91C528.943 1262.4 535.724 1275.61 532.156 1284.89C528.587 1294.17 506.811 1310.23 498.959 1300.24Z" fill="#FFFDFE"/>
<path d="M500.734 1299.2C495.588 1290.15 490.578 1281.02 485.689 1271.84C479.813 1260.8 466.253 1242.6 467.066 1229.7C467.445 1223.7 472.584 1217.97 476.551 1213.78C483.312 1206.65 488.303 1204.75 495.506 1212.48C503.39 1220.94 508.802 1233.64 514.784 1243.47C520.367 1252.64 529.614 1264.58 530.618 1275.6C531.639 1286.83 512.769 1310.02 500.411 1298.78C498.456 1297.01 495.536 1299.91 497.501 1301.69C512.374 1315.21 537.347 1290.98 534.585 1274.51C531.606 1256.74 517.233 1239.54 508.118 1224.61C504.398 1218.52 497.623 1202.47 488.678 1201.48C479.803 1200.5 470.036 1213.96 466.28 1220.37C461.421 1228.66 462.829 1233.7 466.388 1242.14C474.997 1262.54 486.236 1282.05 497.175 1301.28C498.492 1303.58 502.047 1301.51 500.734 1299.2Z" fill="#0567A9"/>
<path d="M1126.98 480.078C1126.98 480.078 1115.51 497.687 1116.94 498.878C1118.37 500.067 1132.17 500.067 1132.17 500.067L1126.98 480.078Z" fill="black"/>
<path d="M1140.09 433.911C1140.09 433.911 1128.92 438.671 1126.98 452.474C1125.03 466.278 1128.36 502.213 1128.6 509.35C1128.84 516.49 1131.69 534.336 1138.6 537.431C1145.5 540.525 1163.59 541.477 1182.63 537.431L1181.59 565.034C1181.59 565.034 1206.18 570.032 1214.27 570.983C1222.37 571.934 1224.04 563.902 1224.04 563.902L1226.4 526.722C1226.4 526.722 1196.9 467.229 1193.09 459.374C1189.28 451.52 1142.77 425.342 1140.09 433.911Z" fill="white"/>
<path d="M1154.97 432.482C1154.97 432.482 1153.88 458.347 1163.38 464.372C1172.88 470.396 1178.82 474.817 1179.83 482.741C1180.84 490.668 1181.99 514.449 1201.23 518.801C1220.46 523.154 1221.17 523.865 1224.03 529.576C1226.88 535.288 1230.56 522.301 1229.26 518.801C1227.96 515.299 1182.66 428.936 1176.1 422.639C1169.54 416.338 1150.51 410.35 1154.97 432.482Z" fill="#0067B0"/>
<path d="M1157.15 516.316C1164.81 516.316 1171.01 510.113 1171.01 502.46C1171.01 494.808 1164.81 488.604 1157.15 488.604C1149.5 488.604 1143.3 494.808 1143.3 502.46C1143.3 510.113 1149.5 516.316 1157.15 516.316Z" fill="#FF9EB3"/>
<path d="M1136.85 463.825C1135.45 471.42 1138.91 479.814 1147.76 479.535C1155.93 479.274 1157.75 470.445 1156.76 463.825C1156.37 461.215 1152.41 462.324 1152.8 464.918C1152.68 464.148 1152.86 465.728 1152.88 466.067C1152.94 467.196 1152.93 468.348 1152.79 469.471C1152.41 472.453 1151.1 475.229 1147.76 475.416C1141.62 475.762 1139.97 469.501 1140.82 464.918C1141.3 462.331 1137.33 461.221 1136.85 463.825Z" fill="black"/>
<path d="M1130.2 518.301C1135.33 519.608 1141.05 518.314 1144.75 514.479C1146.59 512.573 1143.69 509.66 1141.84 511.569C1139.16 514.351 1135.02 515.282 1131.29 514.331C1128.72 513.679 1127.63 517.646 1130.2 518.301Z" fill="black"/>
<path d="M1194.16 478.718C1196.39 486.369 1191.98 494.372 1184.33 496.594C1176.68 498.816 1168.68 494.414 1166.46 486.764C1164.24 479.113 1168.64 471.11 1176.29 468.892C1183.94 466.67 1191.94 471.071 1194.16 478.718Z" fill="white"/>
<path d="M1173.7 484.683C1171.7 476.058 1183.98 472.394 1186.92 480.799C1187.61 482.787 1190.79 481.931 1190.09 479.923C1188.26 474.695 1183.03 471.38 1177.49 472.957C1171.97 474.531 1169.28 480.186 1170.53 485.556C1171.01 487.62 1174.18 486.747 1173.7 484.683Z" fill="black"/>
<path d="M1231.26 509.35C1231.26 509.35 1244.02 495.073 1248.78 469.369C1253.54 443.668 1236.73 420.822 1214.77 416.644C1201.96 414.205 1177.63 411.69 1182.15 429.94C1186.67 448.188 1231.26 509.35 1231.26 509.35Z" fill="#FFE749"/>
<path d="M1227.26 524.342C1227.26 524.342 1197.22 473.313 1186.71 456.704C1176.2 440.096 1160.49 426.056 1161.92 419.87C1163.35 413.681 1176.36 405.139 1185.77 417.938C1195.18 430.737 1219.49 468.272 1226.4 482.741C1233.31 497.212 1237.36 510.252 1236.64 516.701C1235.93 523.15 1229.04 527.354 1227.26 524.342Z" fill="#FFE749"/>
<path d="M1219.46 511.141C1223.2 508.958 1228.43 505.831 1234.19 502.163C1233.87 501.12 1233.51 500.04 1233.12 498.937C1227.12 502.779 1221.65 506.055 1217.78 508.306C1218.36 509.281 1218.92 510.226 1219.46 511.141Z" fill="white"/>
<path d="M1208.27 492.288C1208.83 493.239 1209.4 494.187 1209.96 495.128C1214.5 491.853 1221.35 486.816 1226.4 482.741C1225.96 481.825 1225.45 480.815 1224.88 479.729C1220 483.715 1212.96 488.89 1208.27 492.288Z" fill="white"/>
<path d="M1198.95 476.726C1199.51 477.658 1200.08 478.599 1200.65 479.551C1204.82 476.95 1212.3 472.167 1218.15 467.792C1217.6 466.863 1217.03 465.909 1216.45 464.944C1210.72 469.247 1203.15 474.099 1198.95 476.726Z" fill="white"/>
<path d="M1208.57 452.161C1207.98 451.23 1207.39 450.301 1206.8 449.37C1201.24 452.339 1193.94 456.622 1188.64 459.782C1189.18 460.664 1189.76 461.596 1190.37 462.587C1195.72 459.394 1203.1 455.075 1208.57 452.161Z" fill="white"/>
<path d="M1178.15 444.758C1183.68 441.12 1191.27 436.314 1196.62 433.69C1196 432.758 1195.38 431.83 1194.79 430.941C1189.13 433.762 1181.57 438.559 1176.1 442.164C1176.78 443.013 1177.47 443.879 1178.15 444.758Z" fill="white"/>
<path d="M1166.42 429.94C1171.44 425.865 1178.72 420.631 1185.77 417.941L1185.77 417.938C1185.02 416.927 1184.25 416.091 1183.47 415.334C1176.43 418.247 1169.46 423.225 1164.54 427.205C1165.1 428.077 1165.72 428.982 1166.42 429.94Z" fill="white"/>
<path d="M1184.6 418.586C1205.28 443.77 1222.46 472.973 1233.79 503.49C1234.33 504.968 1236.72 504.33 1236.17 502.835C1224.67 471.851 1207.33 442.401 1186.35 416.842C1185.34 415.61 1183.6 417.368 1184.6 418.586Z" fill="black"/>
<path d="M1166.92 445.334C1166.92 445.334 1143.12 447.477 1128.84 428.913C1114.56 410.35 1130.74 402.261 1130.74 402.261C1130.74 402.261 1121.41 376.798 1137.02 371.323C1152.64 365.848 1164.54 386.078 1168.1 405.83C1171.68 425.582 1170 445.265 1166.92 445.334Z" fill="#0067B0"/>
<path d="M910.716 392.504C910.716 392.504 911.328 339.315 898.835 313.97C886.342 288.625 873.849 262.924 877.417 259.356C880.986 255.787 887.968 263.997 893.759 275.062C899.549 286.126 901.689 290.768 901.689 290.768C901.689 290.768 885.624 254.358 891.336 250.076C897.047 245.793 898.318 250.431 904.287 262.569C910.255 274.706 912.717 283.631 912.717 283.631C912.717 283.631 898.674 246.507 907.5 244.008C916.322 241.51 929.144 281.491 929.144 281.491C929.144 281.491 917.494 240.795 924.582 238.297C931.673 235.798 939.33 249.361 945.674 268.28C952.017 287.199 957.587 301.121 957.587 301.121C957.587 301.121 955.105 273.636 960.879 274.351C966.653 275.065 968.793 298.623 969.152 313.618C969.511 328.613 968.141 381.439 964.51 388.939C960.879 396.438 910.864 402.864 910.716 392.504Z" fill="white"/>
<path d="M1478.45 880.556C1478.45 880.556 1477.9 928.26 1489.11 950.992C1500.31 973.723 1511.52 996.774 1508.32 999.977C1505.12 1003.18 1498.85 995.816 1493.66 985.89C1488.47 975.965 1486.55 971.804 1486.55 971.804C1486.55 971.804 1500.95 1004.46 1495.83 1008.3C1490.71 1012.14 1489.56 1007.98 1484.21 997.096C1478.86 986.21 1476.65 978.207 1476.65 978.207C1476.65 978.207 1489.25 1011.5 1481.33 1013.74C1473.42 1015.99 1461.92 980.126 1461.92 980.126C1461.92 980.126 1472.37 1016.62 1466.01 1018.87C1459.65 1021.11 1452.78 1008.94 1447.09 991.974C1441.4 975.004 1436.41 962.52 1436.41 962.52C1436.41 962.52 1438.63 987.171 1433.45 986.532C1428.27 985.894 1426.35 964.762 1426.03 951.314C1425.71 937.866 1426.94 890.485 1430.19 883.762C1433.46 877.034 1478.32 871.263 1478.45 880.556Z" fill="white"/>
<path d="M1562.02 1213.69L1475.83 1218.63L1478.06 1163.05L1561.22 1163.02C1561.22 1163.02 1565.86 1213.47 1562.02 1213.69Z" fill="white"/>
<path d="M1564.81 1205.61L1477.94 1206.27" stroke="#FF9EB3" stroke-miterlimit="10"/>
<path d="M1559.83 1190.82L1481.73 1192.34" stroke="#FF9EB3" stroke-miterlimit="10"/>
<path d="M1560.54 1176.56L1479.44 1176.23" stroke="#FF9EB3" stroke-miterlimit="10"/>
<path d="M1593.83 1232.58C1593.83 1232.58 1551.37 1233.83 1550.11 1229.23C1548.85 1224.64 1537.55 1149.01 1541.8 1148.12C1546.05 1147.23 1609.91 1136.87 1609.91 1136.87L1653.29 1277.52C1653.29 1277.52 1657.53 1287.98 1593.83 1232.58Z" fill="#0067B0"/>
<path d="M1585.66 1163.03C1594.94 1162.65 1602.78 1169.87 1603.16 1179.16C1603.53 1188.44 1596.31 1196.28 1587.03 1196.65C1577.74 1197.03 1569.91 1189.81 1569.53 1180.53C1569.16 1171.24 1576.37 1163.41 1585.66 1163.03Z" fill="white"/>
<path d="M1607.32 1241.87C1611 1236.64 1614.67 1231.41 1618.35 1226.18C1621.4 1221.83 1614.27 1217.72 1611.24 1222.02C1607.57 1227.25 1603.89 1232.48 1600.21 1237.71C1597.16 1242.06 1604.29 1246.18 1607.32 1241.87Z" fill="white"/>
<path d="M1618.8 1253.88C1622.05 1249.86 1625.3 1245.83 1628.55 1241.81C1629.95 1240.08 1630.24 1237.68 1628.55 1235.99C1627.11 1234.55 1624.14 1234.25 1622.73 1235.99C1619.48 1240.01 1616.23 1244.04 1612.98 1248.06C1611.59 1249.79 1611.29 1252.19 1612.98 1253.88C1614.43 1255.32 1617.4 1255.62 1618.8 1253.88Z" fill="white"/>
<path d="M1656.13 1279.77C1641.13 1231.12 1626.13 1182.49 1611.13 1133.84C1610.35 1131.32 1606.38 1132.4 1607.16 1134.94C1622.17 1183.57 1637.16 1232.22 1652.17 1280.86C1652.94 1283.38 1656.92 1282.31 1656.13 1279.77Z" fill="black"/>
<path d="M1233.31 895.821C1233.31 895.821 1238.31 1100.41 1265.44 1141.26C1292.57 1182.11 1346.11 1228.97 1471.05 1224.1L1479.44 1154.27C1479.44 1154.27 1396.09 1110 1383.24 1032.54C1370.38 955.08 1358.25 839.422 1351.11 832.285C1343.97 825.148 1232.8 880.029 1233.31 895.821Z" fill="#FFE749"/>
<path d="M1335.16 820.859C1329.45 878.66 1326.41 939.025 1334.44 996.681C1345.36 1075.2 1397.41 1154.65 1475.28 1178.55C1477.82 1179.32 1478.9 1175.35 1476.37 1174.58C1394.22 1149.37 1344.61 1063.39 1336.77 981.271C1331.71 928.26 1334.04 873.807 1339.28 820.859C1339.54 818.225 1335.42 818.245 1335.16 820.859Z" fill="white"/>
<path d="M1291.94 835.851C1291.14 882.482 1292.79 929.4 1297.07 975.833C1302.9 1039.13 1313.44 1102.01 1364 1145.97C1395.5 1173.35 1436.15 1186.42 1475.28 1198.65C1477.82 1199.45 1478.9 1195.47 1476.37 1194.69C1441.42 1183.76 1405.25 1172.36 1375.61 1150.1C1348.35 1129.62 1326.66 1099.51 1316.64 1066.86C1298.84 1008.83 1297.59 944.536 1296.31 884.276C1295.97 868.145 1295.77 851.991 1296.05 835.857C1296.1 833.204 1291.98 833.201 1291.94 835.851Z" fill="white"/>
<path d="M1255.53 832.282C1252.13 889.171 1253.26 947.064 1259.56 1003.68C1263.58 1039.78 1269.39 1077.26 1284.54 1110.58C1302.02 1149.04 1340.2 1171.83 1377.89 1187.68C1409 1200.76 1443.03 1210.32 1476.76 1213.43C1479.39 1213.68 1479.38 1209.56 1476.76 1209.32C1448.57 1206.72 1420.2 1199.2 1393.71 1189.5C1353.21 1174.66 1308.63 1151.69 1289.28 1111.08C1273.24 1077.41 1267.46 1038.59 1263.47 1001.87C1259.48 965.249 1258.1 928.343 1258.14 891.515C1258.16 871.776 1258.46 851.988 1259.63 832.282C1259.8 829.635 1255.68 829.645 1255.53 832.282Z" fill="white"/>
<path d="M1493.13 1228.44C1491.78 1235.01 1466.42 1230.94 1465.09 1227.61C1462.69 1221.6 1469.08 1141.72 1473.05 1141.31C1477.02 1140.9 1497.63 1142.86 1499.58 1145.52C1501.51 1148.18 1496.87 1210.3 1493.13 1228.44Z" fill="white"/>
<path d="M1491.35 1227.4C1488.79 1231.91 1475.2 1229.85 1471.79 1228.43C1466.67 1226.3 1467.36 1226.46 1466.63 1221.51C1465.57 1214.37 1467.03 1206.13 1467.49 1198.97C1468.12 1189.03 1468.94 1179.09 1470 1169.19C1470.6 1163.53 1469.7 1149.9 1473.5 1145.29C1476.32 1141.87 1491.94 1142.48 1495.91 1146.01C1499.8 1149.47 1497.78 1159.58 1497.48 1165.24C1496.37 1186.06 1495.08 1207.39 1491.14 1227.89C1490.65 1230.48 1494.61 1231.59 1495.11 1228.99C1497.77 1215.11 1498.92 1200.91 1500.09 1186.84C1500.95 1176.39 1505.84 1156.96 1501.94 1146.88C1499.3 1140.05 1490.29 1140.48 1483.54 1139.79C1474.93 1138.91 1473.06 1137.61 1469.52 1144.2C1465.02 1152.59 1465.92 1168.15 1465.07 1177.33C1463.77 1191.29 1462.39 1205.47 1462.5 1219.51C1462.56 1226.58 1462.28 1229.47 1469.29 1232.05C1475.98 1234.52 1490.65 1236.97 1494.9 1229.48C1496.21 1227.18 1492.66 1225.1 1491.35 1227.4Z" fill="#000001"/>
<path d="M898.598 1180.68L889.357 1094.84L944.982 1094.29L949.17 1177.35C949.17 1177.35 899.009 1184.51 898.598 1180.68Z" fill="white"/>
<path d="M906.805 1183.06L901.811 1096.33" stroke="#FF9EB3" stroke-miterlimit="10"/>
<path d="M921.326 1177.35L915.907 1099.42" stroke="#FF9EB3" stroke-miterlimit="10"/>
<path d="M935.603 1177.35L931.88 1096.33" stroke="#FF9EB3" stroke-miterlimit="10"/>
<path d="M875.156 1216.02C875.156 1216.02 875.633 1173.54 880.271 1172.47C884.913 1171.4 960.945 1163.19 961.66 1167.47C962.374 1171.75 970.127 1235.98 970.127 1235.98L827.83 1273.6C827.83 1273.6 817.21 1277.42 875.156 1216.02Z" fill="#0067B0"/>
<path d="M928.154 1227.51C937.446 1227.51 944.979 1219.98 944.979 1210.69C944.979 1201.4 937.446 1193.86 928.154 1193.86C918.861 1193.86 911.328 1201.4 911.328 1210.69C911.328 1219.98 918.861 1227.51 928.154 1227.51Z" fill="white"/>
<path d="M865.464 1229.21C870.54 1233.1 875.617 1236.98 880.696 1240.87C882.474 1242.23 885.285 1241.13 886.325 1239.39C887.586 1237.29 886.605 1235.11 884.847 1233.76C879.771 1229.88 874.695 1225.99 869.619 1222.1C867.841 1220.74 865.029 1221.84 863.989 1223.58C862.728 1225.68 863.709 1227.87 865.464 1229.21Z" fill="white"/>
<path d="M852.971 1240.23C856.859 1243.64 860.743 1247.05 864.631 1250.46C868.598 1253.94 874.441 1248.14 870.451 1244.64C866.564 1241.23 862.679 1237.82 858.791 1234.41C854.824 1230.93 848.981 1236.72 852.971 1240.23Z" fill="white"/>
<path d="M825.552 1276.33C874.764 1263.32 923.973 1250.31 973.185 1237.3C975.743 1236.63 974.66 1232.66 972.092 1233.34C922.88 1246.35 873.671 1259.36 824.459 1272.36C821.901 1273.04 822.987 1277.01 825.552 1276.33Z" fill="black"/>
<path d="M949.166 1094.29C949.166 1094.29 958.983 997.113 1019.85 990.772C1088.38 983.632 1142.64 1022.18 1196.9 1029.32C1251.16 1036.47 1298.99 1026.47 1315.41 970.783C1315.41 970.783 1344.68 897.961 1335.4 877.972C1326.12 857.983 1183.33 855.84 1173.34 854.411C1163.34 852.982 1154.06 877.257 1136.93 876.543C1119.79 875.829 984.147 861.551 938.458 882.255C892.274 903.182 873.967 928.659 875.156 1003.62C876.344 1078.58 880.63 1094.55 889.91 1099.42C899.194 1104.29 949.166 1094.29 949.166 1094.29Z" fill="#FFE749"/>
<path d="M951.224 1094.29C953.621 1071.46 960.652 1047.48 972.312 1027.69C982.998 1009.56 998.461 995.786 1019.85 992.83C1047.83 988.962 1076.86 995.302 1103.47 1003.55C1148.67 1017.54 1191.52 1037.35 1240.09 1032.75C1278.17 1029.15 1305.74 1008.01 1317.39 971.33C1318.2 968.802 1314.23 967.718 1313.43 970.237C1274.88 1091.6 1120.76 990.348 1042.18 987.922C1005.6 986.792 980.47 1001.01 964.303 1033.94C955.155 1052.58 949.278 1073.63 947.109 1094.29C946.832 1096.92 950.951 1096.91 951.224 1094.29Z" fill="#000001"/>
<path d="M931.949 1094.29C931.294 1073.87 933.852 1052.8 939.02 1033.08C943.353 1016.56 949.983 999.838 961.436 986.888C977.751 968.436 999.412 965.263 1023.03 964.887C1103.95 963.61 1187.03 1021.09 1266.47 982.697C1306.04 963.574 1323.93 924.139 1328.89 882.255C1329.2 879.631 1325.08 879.654 1324.77 882.255C1319.26 928.817 1296.41 969.967 1249.81 984.922C1210.38 997.577 1169.05 990.107 1130.11 979.556C1086.17 967.649 1035.17 951.624 989.52 964.259C960.744 972.222 944.752 999.243 936.673 1026.19C930.168 1047.89 927.1 1071.61 927.831 1094.29C927.92 1096.94 932.035 1096.95 931.949 1094.29Z" fill="white"/>
<path d="M909.103 1099.42C906.973 1054.26 909.577 996.892 936.127 958.698C945.924 944.605 959.026 936.356 976.167 934.795C1004.05 932.254 1032.52 934.9 1060.23 938.136C1107.95 943.71 1158.33 956.483 1206.37 947.568C1248.64 939.726 1275.65 912.357 1282.42 869.949C1282.83 867.359 1278.86 866.243 1278.45 868.856C1259.41 988.188 1103.11 935.434 1023.54 930.641C990.06 928.626 954.769 925.545 933.342 955.505C917.086 978.236 911.259 1007.9 907.845 1035.08C905.182 1056.3 903.98 1078.03 904.988 1099.42C905.113 1102.06 909.228 1102.07 909.103 1099.42Z" fill="white"/>
<path d="M1208.16 854.414C1207.97 858.671 1207.46 862.858 1206.51 866.914C1200.63 892.048 1178.24 898.827 1155.02 900.104C1119.99 902.033 1085.23 897.056 1050.5 893.352C1008.49 888.872 941.338 880.424 911.015 918.398C890.052 944.651 886.227 982.674 885.078 1015.03C884.136 1041.56 885.394 1068.57 889.354 1094.84C889.749 1097.45 893.713 1096.34 893.321 1093.75C889.805 1070.43 888.623 1046.5 888.989 1022.95C889.542 987.352 892.419 939.058 921.148 913.578C943.188 894.03 980.984 893.625 1008.69 894.336C1042.84 895.209 1076.58 901.292 1110.62 903.63C1145.79 906.046 1202.34 911.264 1210.99 865.505C1211.67 861.874 1212.05 858.164 1212.2 854.414H1208.16Z" fill="white"/>
<path d="M875.277 1113.57C868.628 1112.73 870.721 1087.13 873.938 1085.55C879.738 1082.69 959.875 1082.87 960.59 1086.8C961.304 1090.72 960.945 1111.43 958.447 1113.57C955.948 1115.71 893.66 1115.89 875.277 1113.57Z" fill="white"/>
<path d="M876.314 1111.79C871.916 1109.85 872.743 1100.83 873.111 1096.77C873.622 1091.14 873.602 1088.77 878.23 1086.79C883.939 1084.34 894.852 1085.85 900.912 1085.75C910.874 1085.58 920.845 1085.62 930.804 1085.88C937.091 1086.04 950.118 1084.22 955.78 1087.39C960.577 1090.08 960.172 1101.23 958.071 1107.07C955.191 1115.09 945.41 1112.87 937.121 1113.04C916.622 1113.46 895.681 1113.81 875.274 1111.51C872.647 1111.22 872.667 1115.33 875.274 1115.63C890.381 1117.33 905.745 1117.29 920.931 1117.3C930.017 1117.31 949.341 1120.5 957.66 1115.97C964.306 1112.35 963.029 1100.56 962.973 1093.9C962.904 1086.05 963.24 1084.99 956.03 1083.31C944.963 1080.73 932.137 1081.71 920.862 1081.59C907.348 1081.44 893.439 1080.98 879.985 1082.5C872.792 1083.31 871.011 1084.29 869.526 1091.86C868.325 1097.99 866.83 1112.07 874.241 1115.34C876.637 1116.4 878.734 1112.86 876.314 1111.79Z" fill="#000001"/>
<path d="M1176.62 565.986C1176.62 565.986 1176.8 545.519 1179.83 545.282C1182.86 545.045 1236.17 547.185 1236.88 550.043C1237.59 552.897 1239.73 569.587 1238.07 572.428C1236.4 575.269 1182.98 576.935 1176.62 565.986Z" fill="#FF9EB3"/>
<path d="M1186.71 571.526C1187.75 571.803 1188.86 572.053 1190 572.287V545.529C1188.82 545.483 1187.73 545.444 1186.71 545.411V571.526Z" fill="white"/>
<path d="M1199.58 573.702C1200.67 573.814 1201.76 573.913 1202.87 574.002V546.135C1201.76 546.076 1200.66 546.016 1199.58 545.964V573.702Z" fill="white"/>
<path d="M1214.77 574.525C1215.88 574.538 1216.98 574.538 1218.06 574.535V547.122C1216.98 547.037 1215.88 546.954 1214.77 546.875V574.525Z" fill="white"/>
<path d="M1227.26 574.249C1228.43 574.18 1229.54 574.097 1230.56 574.005L1231.26 548.472C1230.27 548.327 1229.17 548.186 1227.98 548.048L1227.26 574.249Z" fill="white"/>
<path d="M1103.57 672.275C1103.57 672.275 1132.98 823.177 1136.38 842.543C1139.79 861.91 1142.81 879.654 1152.99 884.042C1163.35 888.503 1195.83 896.104 1273.29 899.89C1350.75 903.676 1372.4 895.347 1369.96 871.668C1367.53 847.988 1337.43 702.413 1337.43 702.413C1337.43 702.413 1386.46 710.294 1401.7 745.235C1416.94 780.176 1423.68 855.083 1425.99 874.407C1428.29 893.731 1423.21 901.26 1433.92 903.719C1444.63 906.178 1477.32 907.248 1479.72 897.967C1482.11 888.687 1495.81 826.179 1500.2 804.244C1504.6 782.31 1520.89 653.974 1397.45 601.414C1274 548.854 1213.86 573.129 1146.84 555.28C1079.82 537.431 1019.26 513.515 1001.7 481.388C984.147 449.261 974.113 418.205 972.349 401.07C970.581 383.935 976.013 369.839 957.591 366.984C939.169 364.127 911.545 362.152 906.667 384.916C901.788 407.68 892.686 487.455 915.749 536.717C938.816 585.978 1052.72 657.908 1103.57 672.275Z" fill="#FF9EB3"/>
<path d="M1189.96 725.138C1189.96 725.138 1177.11 722.504 1172.83 706.449C1168.55 690.394 1172.47 668.38 1178.42 667.903C1184.37 667.426 1189.96 685.038 1189.96 685.038L1216.74 684.323C1216.74 684.323 1219.83 669.45 1224.71 669.806C1229.59 670.164 1232.32 682.417 1231.14 702.884C1229.94 723.353 1209.84 729.539 1189.96 725.138Z" fill="white"/>
<path d="M1220.66 700.092C1222.44 700.092 1223.88 698.653 1223.88 696.879C1223.88 695.105 1222.44 693.666 1220.66 693.666C1218.89 693.666 1217.45 695.105 1217.45 696.879C1217.45 698.653 1218.89 700.092 1220.66 700.092Z" fill="#0067B0"/>
<path d="M1187.35 697.353C1187.35 699.128 1185.91 700.566 1184.13 700.566C1182.36 700.566 1180.92 699.128 1180.92 697.353C1180.92 695.579 1182.36 694.14 1184.13 694.14C1185.91 694.143 1187.35 695.579 1187.35 697.353Z" fill="#0067B0"/>
<path d="M1201.49 709.013C1201.49 709.013 1196.37 706.854 1197.02 705.066C1197.67 703.279 1206.55 703.16 1207.37 704.885C1208.01 706.235 1203.16 710.225 1201.49 709.013Z" fill="#0067B0"/>
<path d="M1200.14 706.972C1200.14 709.527 1200.14 712.081 1200.14 714.636C1200.14 717.283 1204.25 717.289 1204.25 714.636C1204.25 712.081 1204.25 709.527 1204.25 706.972C1204.25 704.325 1200.14 704.322 1200.14 706.972Z" fill="#0067B0"/>
<path d="M1224.09 705.823C1229.65 704.951 1235.2 704.078 1240.75 703.206C1241.8 703.042 1241.35 701.455 1240.31 701.619C1234.76 702.492 1229.21 703.364 1223.66 704.237C1222.61 704.401 1223.06 705.985 1224.09 705.823Z" fill="#0067B0"/>
<path d="M1224.61 711.597C1229.05 712.875 1233.49 714.152 1237.93 715.429C1238.95 715.722 1239.39 714.136 1238.37 713.843C1233.93 712.565 1229.49 711.288 1225.05 710.011C1224.03 709.718 1223.59 711.308 1224.61 711.597Z" fill="#0067B0"/>
<path d="M1183.52 708.796C1177.97 707.924 1172.41 707.051 1166.86 706.179C1165.83 706.018 1165.38 707.601 1166.43 707.766C1171.98 708.638 1177.53 709.511 1183.08 710.383C1184.12 710.548 1184.56 708.961 1183.52 708.796Z" fill="#0067B0"/>
<path d="M1182.13 714.574C1177.69 715.851 1173.25 717.128 1168.81 718.405C1167.79 718.698 1168.22 720.285 1169.24 719.992C1173.68 718.715 1178.13 717.438 1182.57 716.16C1183.58 715.867 1183.15 714.281 1182.13 714.574Z" fill="#0067B0"/>
<path d="M1164.12 739.882C1159.25 739.527 1156.15 754.4 1156.15 754.4L1129.38 755.114C1129.38 755.114 1123.78 737.502 1117.84 737.98C1117.35 738.019 1116.9 738.243 1116.45 738.546C1120.05 757.146 1123.91 777.052 1127.27 794.539C1128.56 795.046 1129.38 795.214 1129.38 795.214C1149.25 799.616 1169.36 793.43 1170.55 772.964C1171.74 752.494 1169 740.238 1164.12 739.882Z" fill="white"/>
<path d="M1160.08 770.165C1161.85 770.165 1163.29 768.727 1163.29 766.952C1163.29 765.178 1161.85 763.74 1160.08 763.74C1158.3 763.74 1156.87 765.178 1156.87 766.952C1156.87 768.727 1158.3 770.165 1160.08 770.165Z" fill="#0067B0"/>
<path d="M1123.55 770.643C1125.32 770.643 1126.76 769.204 1126.76 767.43C1126.76 765.655 1125.32 764.217 1123.55 764.217C1121.77 764.217 1120.33 765.655 1120.33 767.43C1120.33 769.204 1121.77 770.643 1123.55 770.643Z" fill="#0067B0"/>
<path d="M1140.91 779.09C1140.91 779.09 1135.79 776.93 1136.44 775.143C1137.08 773.359 1145.97 773.237 1146.78 774.958C1147.42 776.308 1142.58 780.298 1140.91 779.09Z" fill="#0067B0"/>
<path d="M1139.55 777.046C1139.55 779.6 1139.55 782.155 1139.55 784.709C1139.55 787.356 1143.67 787.363 1143.67 784.709C1143.67 782.155 1143.67 779.6 1143.67 777.046C1143.67 774.399 1139.55 774.396 1139.55 777.046Z" fill="#0067B0"/>
<path d="M1163.51 775.897C1169.06 775.024 1174.62 774.152 1180.17 773.28C1181.21 773.115 1180.77 771.528 1179.73 771.693C1174.17 772.565 1168.62 773.438 1163.07 774.31C1162.03 774.475 1162.47 776.061 1163.51 775.897Z" fill="#0067B0"/>
<path d="M1164.02 781.674C1168.46 782.952 1172.91 784.229 1177.35 785.506C1178.37 785.799 1178.8 784.212 1177.79 783.919C1173.35 782.642 1168.9 781.365 1164.46 780.087C1163.44 779.791 1163 781.381 1164.02 781.674Z" fill="#0067B0"/>
<path d="M1235.52 848.482C1235.52 848.482 1222.67 845.849 1218.39 829.794C1214.1 813.738 1218.03 791.725 1223.98 791.251C1229.93 790.773 1235.52 808.386 1235.52 808.386L1262.29 807.671C1262.29 807.671 1265.39 792.798 1270.27 793.154C1275.15 793.509 1277.88 805.765 1276.69 826.232C1275.5 846.698 1255.39 852.887 1235.52 848.482Z" fill="white"/>
<path d="M1266.22 823.436C1268 823.436 1269.44 821.998 1269.44 820.224C1269.44 818.449 1268 817.01 1266.22 817.01C1264.45 817.01 1263.01 818.449 1263.01 820.224C1263.01 821.998 1264.45 823.436 1266.22 823.436Z" fill="#0067B0"/>
<path d="M1229.69 823.914C1231.47 823.914 1232.9 822.475 1232.9 820.701C1232.9 818.926 1231.47 817.488 1229.69 817.488C1227.92 817.488 1226.48 818.926 1226.48 820.701C1226.48 822.475 1227.92 823.914 1229.69 823.914Z" fill="#0067B0"/>
<path d="M1247.05 832.358C1247.05 832.358 1241.93 830.198 1242.58 828.411C1243.23 826.627 1252.11 826.505 1252.93 828.23C1253.56 829.58 1248.72 833.569 1247.05 832.358Z" fill="#0067B0"/>
<path d="M1245.7 830.317C1245.7 832.871 1245.7 835.426 1245.7 837.981C1245.7 840.627 1249.81 840.634 1249.81 837.981C1249.81 835.426 1249.81 832.871 1249.81 830.317C1249.81 827.67 1245.7 827.667 1245.7 830.317Z" fill="#0067B0"/>
<path d="M1269.65 829.168C1275.21 828.296 1280.76 827.423 1286.31 826.551C1287.35 826.386 1286.91 824.8 1285.87 824.964C1280.32 825.836 1274.77 826.709 1269.21 827.581C1268.17 827.746 1268.62 829.333 1269.65 829.168Z" fill="#0067B0"/>
<path d="M1270.17 834.942C1274.61 836.22 1279.05 837.497 1283.49 838.774C1284.51 839.067 1284.95 837.48 1283.93 837.187C1279.49 835.91 1275.04 834.633 1270.6 833.355C1269.58 833.062 1269.15 834.653 1270.17 834.942Z" fill="#0067B0"/>
<path d="M1229.08 832.141C1223.52 831.268 1217.97 830.396 1212.42 829.523C1211.38 829.362 1210.94 830.946 1211.98 831.11C1217.54 831.983 1223.09 832.855 1228.64 833.727C1229.68 833.892 1230.12 832.305 1229.08 832.141Z" fill="#0067B0"/>
<path d="M1227.69 837.918C1223.25 839.195 1218.8 840.473 1214.36 841.75C1213.35 842.043 1213.78 843.63 1214.8 843.337C1219.24 842.059 1223.69 840.782 1228.13 839.505C1229.14 839.212 1228.71 837.625 1227.69 837.918Z" fill="#0067B0"/>
<path d="M1340.19 715.834C1338.32 719.995 1337.25 725.108 1337.25 725.108L1310.48 725.822C1310.48 725.822 1304.89 708.213 1298.94 708.687C1292.99 709.165 1289.06 731.175 1293.34 747.23C1297.63 763.285 1310.48 765.919 1310.48 765.919C1325.92 769.339 1341.45 766.33 1348.2 755.24C1345.02 739.468 1342.16 725.454 1340.19 715.834Z" fill="white"/>
<path d="M1344.39 737.66C1344.39 739.435 1342.95 740.873 1341.18 740.873C1339.4 740.873 1337.96 739.435 1337.96 737.66C1337.96 735.886 1339.4 734.447 1341.18 734.447C1342.95 734.447 1344.39 735.886 1344.39 737.66Z" fill="#0067B0"/>
<path d="M1304.65 741.351C1306.42 741.351 1307.86 739.912 1307.86 738.138C1307.86 736.363 1306.42 734.925 1304.65 734.925C1302.88 734.925 1301.44 736.363 1301.44 738.138C1301.44 739.912 1302.88 741.351 1304.65 741.351Z" fill="#0067B0"/>
<path d="M1322.01 749.798C1322.01 749.798 1316.89 747.638 1317.53 745.851C1318.18 744.067 1327.07 743.945 1327.88 745.67C1328.52 747.016 1323.68 751.006 1322.01 749.798Z" fill="#0067B0"/>
<path d="M1320.65 747.754C1320.65 750.308 1320.65 752.863 1320.65 755.417C1320.65 758.064 1324.77 758.071 1324.77 755.417C1324.77 752.863 1324.77 750.308 1324.77 747.754C1324.77 745.107 1320.65 745.104 1320.65 747.754Z" fill="#0067B0"/>
<path d="M1304.03 749.581C1298.48 748.708 1292.93 747.836 1287.38 746.963C1286.34 746.802 1285.9 748.386 1286.94 748.55C1292.49 749.423 1298.05 750.295 1303.6 751.167C1304.63 751.329 1305.08 749.745 1304.03 749.581Z" fill="#0067B0"/>
<path d="M1302.64 755.355C1298.2 756.632 1293.76 757.909 1289.32 759.187C1288.3 759.48 1288.74 761.066 1289.76 760.773C1294.2 759.496 1298.64 758.219 1303.08 756.941C1304.1 756.652 1303.67 755.062 1302.64 755.355Z" fill="#0067B0"/>
<path d="M1289.24 653.737C1289.24 653.737 1276.39 651.104 1272.11 635.049C1267.82 618.994 1271.75 596.98 1277.7 596.506C1283.65 596.029 1289.24 613.641 1289.24 613.641L1316.01 612.926C1316.01 612.926 1319.11 598.053 1323.99 598.409C1328.87 598.764 1331.6 611.02 1330.41 631.487C1329.22 651.953 1309.11 658.142 1289.24 653.737Z" fill="white"/>
<path d="M1319.94 628.692C1321.71 628.692 1323.15 627.253 1323.15 625.479C1323.15 623.704 1321.71 622.266 1319.94 622.266C1318.16 622.266 1316.72 623.704 1316.72 625.479C1316.72 627.253 1318.16 628.692 1319.94 628.692Z" fill="#0067B0"/>
<path d="M1283.41 629.169C1285.18 629.169 1286.62 627.731 1286.62 625.956C1286.62 624.182 1285.18 622.743 1283.41 622.743C1281.64 622.743 1280.2 624.182 1280.2 625.956C1280.2 627.731 1281.64 629.169 1283.41 629.169Z" fill="#0067B0"/>
<path d="M1300.77 637.617C1300.77 637.617 1295.65 635.457 1296.3 633.669C1296.95 631.882 1305.83 631.763 1306.64 633.488C1307.28 634.838 1302.44 638.825 1300.77 637.617Z" fill="#0067B0"/>
<path d="M1299.41 635.575C1299.41 638.13 1299.41 640.685 1299.41 643.239C1299.41 645.886 1303.53 645.893 1303.53 643.239C1303.53 640.685 1303.53 638.13 1303.53 635.575C1303.53 632.925 1299.41 632.922 1299.41 635.575Z" fill="#0067B0"/>
<path d="M1323.37 634.423C1328.92 633.551 1334.48 632.678 1340.03 631.806C1341.07 631.641 1340.62 630.055 1339.59 630.219C1334.03 631.092 1328.48 631.964 1322.93 632.836C1321.89 633.001 1322.33 634.588 1323.37 634.423Z" fill="#0067B0"/>
<path d="M1323.88 640.201C1328.33 641.478 1332.77 642.755 1337.21 644.032C1338.23 644.325 1338.67 642.739 1337.65 642.446C1333.21 641.168 1328.76 639.891 1324.32 638.614C1323.3 638.317 1322.87 639.908 1323.88 640.201Z" fill="#0067B0"/>
<path d="M1282.79 637.399C1277.24 636.527 1271.69 635.654 1266.14 634.782C1265.1 634.621 1264.66 636.204 1265.7 636.369C1271.25 637.241 1276.81 638.114 1282.36 638.986C1283.39 639.147 1283.84 637.564 1282.79 637.399Z" fill="#0067B0"/>
<path d="M1281.41 643.173C1276.96 644.451 1272.52 645.728 1268.08 647.005C1267.06 647.298 1267.49 648.885 1268.52 648.592C1272.96 647.315 1277.4 646.037 1281.84 644.76C1282.86 644.47 1282.43 642.88 1281.41 643.173Z" fill="#0067B0"/>
<path d="M1390.45 703.127C1390.45 703.127 1377.6 700.494 1373.31 684.438C1369.03 668.383 1372.96 646.37 1378.91 645.896C1384.86 645.418 1390.45 663.031 1390.45 663.031L1417.22 662.316C1417.22 662.316 1420.32 647.443 1425.2 647.799C1430.07 648.154 1432.81 660.41 1431.62 680.877C1430.43 701.343 1410.32 707.529 1390.45 703.127Z" fill="white"/>
<path d="M1421.15 678.078C1422.92 678.078 1424.36 676.64 1424.36 674.865C1424.36 673.091 1422.92 671.652 1421.15 671.652C1419.37 671.652 1417.93 673.091 1417.93 674.865C1417.93 676.64 1419.37 678.078 1421.15 678.078Z" fill="#0067B0"/>
<path d="M1387.83 675.343C1387.83 677.117 1386.39 678.556 1384.62 678.556C1382.84 678.556 1381.41 677.117 1381.41 675.343C1381.41 673.568 1382.84 672.13 1384.62 672.13C1386.39 672.13 1387.83 673.568 1387.83 675.343Z" fill="#0067B0"/>
<path d="M1401.98 687.003C1401.98 687.003 1396.86 684.843 1397.51 683.056C1398.16 681.271 1407.04 681.15 1407.85 682.875C1408.49 684.224 1403.65 688.211 1401.98 687.003Z" fill="#0067B0"/>
<path d="M1400.62 684.962C1400.62 687.517 1400.62 690.071 1400.62 692.626C1400.62 695.272 1404.74 695.279 1404.74 692.626C1404.74 690.071 1404.74 687.517 1404.74 684.962C1404.74 682.315 1400.62 682.309 1400.62 684.962Z" fill="#0067B0"/>
<path d="M1424.58 683.81C1430.13 682.937 1435.69 682.065 1441.24 681.192C1442.28 681.028 1441.84 679.441 1440.8 679.606C1435.25 680.478 1429.69 681.35 1424.14 682.223C1423.1 682.387 1423.54 683.974 1424.58 683.81Z" fill="#0067B0"/>
<path d="M1425.09 689.587C1429.53 690.864 1433.98 692.142 1438.42 693.419C1439.44 693.712 1439.88 692.125 1438.86 691.832C1434.42 690.555 1429.97 689.278 1425.53 688C1424.51 687.707 1424.08 689.294 1425.09 689.587Z" fill="#0067B0"/>
<path d="M1384 686.786C1378.45 685.913 1372.9 685.041 1367.35 684.169C1366.31 684.007 1365.86 685.591 1366.91 685.755C1372.46 686.628 1378.02 687.5 1383.57 688.372C1384.6 688.534 1385.05 686.95 1384 686.786Z" fill="#0067B0"/>
<path d="M1382.61 692.563C1378.17 693.84 1373.73 695.118 1369.29 696.395C1368.27 696.688 1368.71 698.275 1369.73 697.982C1374.17 696.704 1378.61 695.427 1383.05 694.15C1384.07 693.857 1383.64 692.267 1382.61 692.563Z" fill="#0067B0"/>
<path d="M1465.85 780.384C1460.97 780.028 1457.88 794.901 1457.88 794.901L1431.1 795.616C1431.1 795.616 1425.51 778.007 1419.56 778.481C1417.18 778.672 1415.14 782.343 1413.8 787.669C1416.59 801.495 1418.85 816.026 1420.65 829.339C1425.64 834.57 1431.1 835.716 1431.1 835.716C1450.97 840.117 1471.08 833.931 1472.27 813.465C1473.46 792.995 1470.73 780.739 1465.85 780.384Z" fill="white"/>
<path d="M1465.02 807.454C1465.02 809.228 1463.58 810.667 1461.8 810.667C1460.03 810.667 1458.59 809.228 1458.59 807.454C1458.59 805.68 1460.03 804.241 1461.8 804.241C1463.58 804.241 1465.02 805.68 1465.02 807.454Z" fill="#0067B0"/>
<path d="M1425.27 811.141C1427.05 811.141 1428.48 809.703 1428.48 807.928C1428.48 806.154 1427.05 804.715 1425.27 804.715C1423.5 804.715 1422.06 806.154 1422.06 807.928C1422.06 809.703 1423.5 811.141 1425.27 811.141Z" fill="#0067B0"/>
<path d="M1442.63 819.588C1442.63 819.588 1437.51 817.429 1438.16 815.641C1438.81 813.854 1447.69 813.735 1448.51 815.457C1449.14 816.81 1444.3 820.8 1442.63 819.588Z" fill="#0067B0"/>
<path d="M1441.28 817.547C1441.28 820.102 1441.28 822.656 1441.28 825.211C1441.28 827.858 1445.39 827.864 1445.39 825.211C1445.39 822.656 1445.39 820.102 1445.39 817.547C1445.39 814.9 1441.28 814.897 1441.28 817.547Z" fill="#0067B0"/>
<path d="M1465.23 816.398C1470.79 815.526 1476.34 814.654 1481.89 813.781C1482.93 813.617 1482.49 812.03 1481.45 812.195C1475.9 813.067 1470.35 813.939 1464.8 814.812C1463.75 814.973 1464.2 816.56 1465.23 816.398Z" fill="#0067B0"/>
<path d="M1465.75 822.173C1470.19 823.45 1474.63 824.727 1479.07 826.004C1480.09 826.297 1480.53 824.711 1479.51 824.418C1475.07 823.14 1470.63 821.863 1466.18 820.586C1465.16 820.293 1464.73 821.88 1465.75 822.173Z" fill="#0067B0"/>
<path d="M1424.66 819.371C1422.81 819.081 1420.97 818.792 1419.12 818.499C1419.2 819.065 1419.29 819.631 1419.37 820.194C1420.99 820.447 1422.61 820.704 1424.22 820.958C1425.26 821.122 1425.7 819.536 1424.66 819.371Z" fill="#0067B0"/>
<path d="M1423.27 825.148C1422.25 825.441 1421.22 825.738 1420.2 826.031C1420.27 826.584 1420.35 827.13 1420.43 827.68C1421.52 827.364 1422.61 827.051 1423.71 826.735C1424.72 826.442 1424.29 824.855 1423.27 825.148Z" fill="#0067B0"/>
<path d="M1502.54 748.172C1501.52 736.386 1499.44 723.58 1495.72 710.458L1472.72 711.071C1472.72 711.071 1467.13 693.462 1461.18 693.936C1455.23 694.413 1451.3 716.424 1455.58 732.479C1459.87 748.534 1472.72 751.167 1472.72 751.167C1483.66 753.597 1494.66 752.787 1502.54 748.172Z" fill="white"/>
<path d="M1470.1 723.389C1470.1 725.164 1468.66 726.603 1466.89 726.603C1465.11 726.603 1463.68 725.164 1463.68 723.389C1463.68 721.615 1465.11 720.177 1466.89 720.177C1468.66 720.177 1470.1 721.615 1470.1 723.389Z" fill="#0067B0"/>
<path d="M1484.25 735.05C1484.25 735.05 1479.13 732.89 1479.78 731.103C1480.43 729.318 1489.31 729.197 1490.12 730.922C1490.76 732.271 1485.92 736.258 1484.25 735.05Z" fill="#0067B0"/>
<path d="M1482.89 733.009C1482.89 735.563 1482.89 738.118 1482.89 740.672C1482.89 743.319 1487.01 743.326 1487.01 740.672C1487.01 738.118 1487.01 735.563 1487.01 733.009C1487.01 730.358 1482.89 730.355 1482.89 733.009Z" fill="#0067B0"/>
<path d="M1466.27 734.833C1460.72 733.96 1455.17 733.088 1449.62 732.215C1448.58 732.054 1448.13 733.638 1449.18 733.802C1454.73 734.675 1460.29 735.547 1465.84 736.419C1466.87 736.581 1467.32 734.997 1466.27 734.833Z" fill="#0067B0"/>
<path d="M1464.88 740.607C1460.44 741.884 1456 743.161 1451.56 744.439C1450.54 744.732 1450.98 746.318 1452 746.025C1456.44 744.748 1460.88 743.471 1465.32 742.193C1466.34 741.904 1465.91 740.314 1464.88 740.607Z" fill="#0067B0"/>
<path d="M1145.92 629.67C1145.92 629.67 1133.06 627.036 1128.78 610.981C1124.5 594.926 1128.43 572.912 1134.37 572.435C1140.32 571.957 1145.92 589.57 1145.92 589.57L1172.69 588.855C1172.69 588.855 1175.78 573.982 1180.66 574.338C1185.54 574.693 1188.28 586.949 1187.09 607.416C1185.9 627.885 1165.79 634.074 1145.92 629.67Z" fill="white"/>
<path d="M1179.83 601.411C1179.83 603.185 1178.39 604.624 1176.62 604.624C1174.84 604.624 1173.4 603.185 1173.4 601.411C1173.4 599.637 1174.84 598.198 1176.62 598.198C1178.39 598.198 1179.83 599.637 1179.83 601.411Z" fill="#0067B0"/>
<path d="M1140.09 605.101C1141.86 605.101 1143.3 603.663 1143.3 601.888C1143.3 600.114 1141.86 598.675 1140.09 598.675C1138.31 598.675 1136.87 600.114 1136.87 601.888C1136.87 603.663 1138.31 605.101 1140.09 605.101Z" fill="#0067B0"/>
<path d="M1157.45 613.548C1157.45 613.548 1152.33 611.389 1152.97 609.601C1153.62 607.817 1162.51 607.692 1163.32 609.417C1163.96 610.767 1159.12 614.757 1157.45 613.548Z" fill="#0067B0"/>
<path d="M1156.09 611.504C1156.09 614.059 1156.09 616.613 1156.09 619.168C1156.09 621.815 1160.21 621.821 1160.21 619.168C1160.21 616.613 1160.21 614.059 1160.21 611.504C1160.21 608.857 1156.09 608.854 1156.09 611.504Z" fill="#0067B0"/>
<path d="M1180.05 610.355C1185.6 609.483 1191.15 608.61 1196.71 607.738C1197.75 607.573 1197.3 605.987 1196.27 606.151C1190.71 607.024 1185.16 607.896 1179.61 608.768C1178.57 608.933 1179.01 610.52 1180.05 610.355Z" fill="#0067B0"/>
<path d="M1180.56 616.133C1185 617.41 1189.45 618.687 1193.89 619.965C1194.91 620.258 1195.34 618.671 1194.32 618.378C1189.88 617.1 1185.44 615.823 1181 614.546C1179.98 614.25 1179.54 615.84 1180.56 616.133Z" fill="#0067B0"/>
<path d="M1139.47 613.331C1133.92 612.459 1128.37 611.587 1122.82 610.714C1121.78 610.553 1121.33 612.136 1122.38 612.301C1127.93 613.173 1133.49 614.046 1139.04 614.918C1140.07 615.079 1140.52 613.496 1139.47 613.331Z" fill="#0067B0"/>
<path d="M1138.08 619.106C1133.64 620.383 1129.2 621.66 1124.76 622.937C1123.74 623.23 1124.18 624.817 1125.2 624.524C1129.64 623.247 1134.08 621.97 1138.52 620.692C1139.54 620.399 1139.1 618.813 1138.08 619.106Z" fill="#0067B0"/>
<path d="M1045.49 583.045C1040.61 582.689 1037.52 597.563 1037.52 597.563L1010.74 598.277C1010.74 598.277 1005.15 580.668 999.201 581.142C994.079 581.554 990.468 597.935 992.298 612.732C1005.32 621.979 1018.9 630.753 1032.23 638.653C1043.06 636.109 1051.17 628.896 1051.91 616.126C1053.11 595.66 1050.37 583.404 1045.49 583.045Z" fill="white"/>
<path d="M1044.66 610.115C1044.66 611.889 1043.22 613.328 1041.44 613.328C1039.67 613.328 1038.23 611.889 1038.23 610.115C1038.23 608.341 1039.67 606.902 1041.44 606.902C1043.22 606.902 1044.66 608.341 1044.66 610.115Z" fill="#0067B0"/>
<path d="M1004.92 613.805C1006.69 613.805 1008.13 612.367 1008.13 610.592C1008.13 608.818 1006.69 607.379 1004.92 607.379C1003.14 607.379 1001.7 608.818 1001.7 610.592C1001.7 612.367 1003.14 613.805 1004.92 613.805Z" fill="#0067B0"/>
<path d="M1022.28 622.253C1022.28 622.253 1017.16 620.093 1017.8 618.306C1018.45 616.521 1027.34 616.4 1028.15 618.125C1028.79 619.474 1023.95 623.461 1022.28 622.253Z" fill="#0067B0"/>
<path d="M1020.92 620.212C1020.92 622.766 1020.92 625.321 1020.92 627.875C1020.92 630.522 1025.04 630.529 1025.04 627.875C1025.04 625.321 1025.04 622.766 1025.04 620.212C1025.04 617.562 1020.92 617.558 1020.92 620.212Z" fill="#0067B0"/>
<path d="M1044.88 619.059C1050.43 618.187 1055.99 617.315 1061.54 616.442C1062.58 616.278 1062.13 614.691 1061.1 614.855C1055.54 615.728 1049.99 616.6 1044.44 617.473C1043.4 617.637 1043.84 619.224 1044.88 619.059Z" fill="#0067B0"/>
<path d="M1045.39 624.837C1049.83 626.114 1054.28 627.391 1058.72 628.669C1059.74 628.962 1060.17 627.375 1059.16 627.082C1054.71 625.805 1050.27 624.527 1045.83 623.25C1044.81 622.954 1044.37 624.544 1045.39 624.837Z" fill="#0067B0"/>
<path d="M1006.07 488.054C1005.35 490.448 1004.95 492.321 1004.95 492.321L978.179 493.035C978.179 493.035 972.586 475.426 966.637 475.9C960.688 476.378 956.761 498.388 961.044 514.446C965.327 530.501 978.179 533.135 978.179 533.135C998.049 537.536 1018.16 531.351 1019.35 510.884C1019.54 507.635 1019.62 504.616 1019.62 501.795C1014.23 497.4 1009.67 492.821 1006.07 488.054Z" fill="white"/>
<path d="M1008.88 508.086C1010.65 508.086 1012.09 506.648 1012.09 504.873C1012.09 503.099 1010.65 501.66 1008.88 501.66C1007.11 501.66 1005.67 503.099 1005.67 504.873C1005.67 506.648 1007.11 508.086 1008.88 508.086Z" fill="#0067B0"/>
<path d="M975.565 505.35C975.565 507.125 974.126 508.563 972.352 508.563C970.578 508.563 969.139 507.125 969.139 505.35C969.139 503.576 970.578 502.137 972.352 502.137C974.126 502.137 975.565 503.576 975.565 505.35Z" fill="#0067B0"/>
<path d="M989.714 517.011C989.714 517.011 984.592 514.851 985.24 513.064C985.889 511.276 994.774 511.158 995.587 512.883C996.222 514.232 991.38 518.219 989.714 517.011Z" fill="#0067B0"/>
<path d="M988.354 514.97C988.354 517.524 988.354 520.079 988.354 522.634C988.354 525.28 992.469 525.287 992.469 522.634C992.469 520.079 992.469 517.524 992.469 514.97C992.469 512.32 988.354 512.316 988.354 514.97Z" fill="#0067B0"/>
<path d="M1012.31 513.817C1017.87 512.945 1023.42 512.073 1028.97 511.2C1030.01 511.036 1029.57 509.449 1028.53 509.614C1022.98 510.486 1017.43 511.358 1011.88 512.231C1010.83 512.395 1011.27 513.982 1012.31 513.817Z" fill="#0067B0"/>
<path d="M1012.83 519.595C1017.27 520.872 1021.71 522.149 1026.15 523.427C1027.17 523.72 1027.61 522.133 1026.59 521.84C1022.15 520.563 1017.71 519.285 1013.26 518.008C1012.24 517.715 1011.81 519.302 1012.83 519.595Z" fill="#0067B0"/>
<path d="M971.736 516.793C966.183 515.921 960.629 515.049 955.079 514.176C954.042 514.015 953.597 515.598 954.641 515.763C960.195 516.635 965.748 517.508 971.299 518.38C972.336 518.541 972.783 516.958 971.736 516.793Z" fill="#0067B0"/>
<path d="M970.347 522.568C965.906 523.845 961.462 525.122 957.021 526.399C956.004 526.692 956.438 528.279 957.459 527.986C961.9 526.709 966.344 525.432 970.785 524.154C971.802 523.865 971.371 522.275 970.347 522.568Z" fill="#0067B0"/>
<path d="M954.503 442.661C955.694 422.194 952.955 409.938 948.077 409.583C943.198 409.227 940.104 424.101 940.104 424.101L913.33 424.815C913.33 424.815 908.566 409.85 903.154 407.907C901.65 421.309 900.511 438.167 900.767 456.03C906.179 463.44 913.33 464.911 913.33 464.911C933.203 469.316 953.314 463.127 954.503 442.661Z" fill="white"/>
<path d="M944.034 439.866C945.809 439.866 947.247 438.427 947.247 436.653C947.247 434.878 945.809 433.44 944.034 433.44C942.26 433.44 940.821 434.878 940.821 436.653C940.821 438.427 942.26 439.866 944.034 439.866Z" fill="#0067B0"/>
<path d="M907.503 440.34C909.277 440.34 910.716 438.902 910.716 437.127C910.716 435.353 909.277 433.914 907.503 433.914C905.728 433.914 904.29 435.353 904.29 437.127C904.29 438.902 905.728 440.34 907.503 440.34Z" fill="#0067B0"/>
<path d="M924.865 448.787C924.865 448.787 919.742 446.628 920.391 444.84C921.04 443.056 929.925 442.934 930.738 444.659C931.373 446.009 926.534 449.999 924.865 448.787Z" fill="#0067B0"/>
<path d="M923.509 446.746C923.509 449.301 923.509 451.855 923.509 454.41C923.509 457.057 927.624 457.063 927.624 454.41C927.624 451.855 927.624 449.301 927.624 446.746C927.624 444.099 923.509 444.096 923.509 446.746Z" fill="#0067B0"/>
<path d="M947.464 445.597C953.018 444.725 958.572 443.852 964.122 442.98C965.166 442.815 964.721 441.229 963.684 441.393C958.131 442.266 952.58 443.138 947.027 444.01C945.983 444.172 946.427 445.759 947.464 445.597Z" fill="#0067B0"/>
<path d="M947.978 451.371C952.419 452.649 956.863 453.926 961.304 455.203C962.324 455.496 962.759 453.91 961.742 453.617C957.301 452.339 952.857 451.062 948.416 449.785C947.395 449.492 946.961 451.082 947.978 451.371Z" fill="#0067B0"/>
<path d="M900.744 449.261C902.647 449.561 904.55 449.857 906.449 450.157C907.486 450.318 907.931 448.735 906.887 448.57C904.843 448.251 902.799 447.928 900.758 447.605C900.754 448.159 900.748 448.708 900.744 449.261Z" fill="#0067B0"/>
<path d="M900.8 457.412C902.512 456.918 904.224 456.428 905.939 455.934C906.956 455.641 906.522 454.054 905.501 454.347C903.924 454.802 902.348 455.253 900.771 455.707C900.777 456.273 900.79 456.843 900.8 457.412Z" fill="#0067B0"/>
<path d="M1328.7 675.415C1342.31 743.592 1355.92 811.773 1369.52 879.95C1370.04 882.544 1374.01 881.448 1373.49 878.857C1359.88 810.68 1346.27 742.499 1332.66 674.322C1332.15 671.725 1328.18 672.824 1328.7 675.415Z" fill="black"/>
<path d="M1056.29 654.504C1073.89 665.503 1094.57 672.363 1114.55 677.325C1117.12 677.963 1118.22 673.996 1115.65 673.358C1095.93 668.462 1075.71 661.793 1058.37 650.952C1056.11 649.547 1054.05 653.105 1056.29 654.504Z" fill="black"/>
<path d="M1437.77 904.39L1434.36 860.004C1433.18 859.787 1432.08 859.546 1431.01 859.3L1434.42 903.811C1435.39 904.018 1436.52 904.212 1437.77 904.39Z" fill="white"/>
<path d="M1448.86 861.515C1447.72 861.472 1446.63 861.41 1445.56 861.341L1447.62 905.276C1448.7 905.325 1449.8 905.361 1450.92 905.384L1448.86 861.515Z" fill="white"/>
<path d="M1459.82 861.512C1458.71 861.551 1457.59 861.594 1456.53 861.607L1457.55 905.338C1458.66 905.299 1459.75 905.243 1460.84 905.167L1459.82 861.512Z" fill="white"/>
<path d="M1471.33 903.597C1472.53 903.281 1473.64 902.915 1474.64 902.504L1475.23 860.346C1474.12 860.472 1473 860.597 1471.93 860.702L1471.33 903.597Z" fill="white"/>
<path d="M960.886 400.964V367.685C959.882 367.406 958.792 367.169 957.594 366.981V400.438C958.72 400.599 959.809 400.777 960.886 400.964Z" fill="white"/>
<path d="M944.034 399.285C944.597 399.302 945.127 399.345 945.68 399.368V365.575C944.587 365.493 943.491 365.421 942.388 365.375V399.249C942.941 399.262 943.468 399.266 944.034 399.285Z" fill="white"/>
<path d="M932.44 399.21V365.595C931.327 365.697 930.231 365.835 929.148 366.003V399.295C930.214 399.256 931.324 399.233 932.44 399.21Z" fill="white"/>
<path d="M919.186 399.986L920.128 368.466C918.959 368.969 917.843 369.552 916.78 370.204L915.881 400.378C916.941 400.237 918.044 400.105 919.186 399.986Z" fill="white"/>
<path d="M1160.77 886.686L1155.94 844.377C1154.74 843.864 1153.59 843.343 1152.45 842.823L1157.34 885.646C1158.37 885.981 1159.52 886.33 1160.77 886.686Z" fill="white"/>
<path d="M1177.47 852.136C1176.31 851.787 1175.15 851.445 1174.03 851.09L1178.55 890.646C1179.64 890.844 1180.77 891.041 1181.94 891.239L1177.47 852.136Z" fill="white"/>
<path d="M1201.17 858.065C1200.03 857.835 1198.88 857.604 1197.77 857.364L1201.97 894.142C1203.07 894.28 1204.19 894.415 1205.33 894.55L1201.17 858.065Z" fill="white"/>
<path d="M1224.16 861.894C1223.03 861.746 1221.91 861.594 1220.79 861.436L1224.81 896.582C1225.91 896.684 1227.02 896.786 1228.16 896.884L1224.16 861.894Z" fill="white"/>
<path d="M1246.06 864.129C1244.96 864.044 1243.81 863.978 1242.72 863.889L1246.65 898.327C1247.74 898.402 1248.88 898.475 1249.99 898.55L1246.06 864.129Z" fill="white"/>
<path d="M1268.29 865.258C1267.18 865.232 1266.1 865.215 1264.96 865.179L1268.91 899.666C1270.01 899.722 1271.11 899.781 1272.24 899.837L1268.29 865.258Z" fill="white"/>
<path d="M1291.85 865.074C1290.79 865.123 1289.64 865.146 1288.55 865.186L1292.6 900.608C1293.72 900.634 1294.82 900.654 1295.92 900.674L1291.85 865.074Z" fill="white"/>
<path d="M1312.81 863.145C1311.75 863.296 1310.65 863.434 1309.55 863.573L1313.79 900.664C1314.9 900.637 1316.01 900.614 1317.09 900.578L1312.81 863.145Z" fill="white"/>
<path d="M1332.45 859.083C1331.42 859.379 1330.31 859.652 1329.23 859.929L1333.74 899.459C1334.87 899.337 1335.95 899.202 1337.01 899.064L1332.45 859.083Z" fill="white"/>
<path d="M1350.1 852.057C1349.13 852.584 1348.09 853.098 1347.04 853.608L1354.67 895.011C1355.77 894.59 1356.8 894.142 1357.77 893.675L1350.1 852.057Z" fill="white"/>
<path d="M157.133 668.199C157.133 668.199 157.706 620.014 214.108 608.884" stroke="#FF9EB3" stroke-width="3" stroke-miterlimit="10"/>
<path d="M142 634.186C142 634.186 147.136 595.031 185.619 593" stroke="#FF9EB3" stroke-width="3" stroke-miterlimit="10"/>
<path d="M1451 1042.43C1451 1042.43 1478.48 1059.56 1496.69 1036" stroke="#FF9EB3" stroke-width="3" stroke-miterlimit="10"/>
<path d="M1470.13 1066.34C1470.13 1066.34 1483.48 1069.91 1490.98 1060.99" stroke="#FF9EB3" stroke-width="3" stroke-miterlimit="10"/>
<path d="M1517.3 620.852C1517.3 620.852 1553.48 661.966 1534.91 725.557" stroke="#FF9EB3" stroke-width="3" stroke-miterlimit="10"/>
<path d="M1548.09 638.01C1548.09 638.01 1562.16 654.852 1556.92 687.561" stroke="#FF9EB3" stroke-width="3" stroke-miterlimit="10"/>
<path d="M723.375 660.632C730.449 660.632 736.184 654.898 736.184 647.823C736.184 640.749 730.449 635.014 723.375 635.014C716.301 635.014 710.566 640.749 710.566 647.823C710.566 654.898 716.301 660.632 723.375 660.632Z" fill="white" stroke="#FFE749" stroke-width="5" stroke-miterlimit="10"/>
<path d="M850.413 733.244C850.413 736.767 847.559 739.621 844.04 739.621C840.521 739.621 837.663 736.767 837.663 733.244C837.663 729.725 840.517 726.871 844.04 726.871C847.562 726.871 850.413 729.722 850.413 733.244Z" fill="white" stroke="#FFE749" stroke-width="5" stroke-miterlimit="10"/>
<path d="M1026.66 359.635C1026.66 369.643 1018.55 377.754 1008.54 377.754C998.537 377.754 990.425 369.643 990.425 359.635C990.425 349.627 998.537 341.516 1008.54 341.516C1018.55 341.516 1026.66 349.631 1026.66 359.635Z" fill="white" stroke="#FFE749" stroke-width="5" stroke-miterlimit="10"/>
<path d="M1129.21 130.436C1129.21 135.957 1124.74 140.431 1119.22 140.431C1113.7 140.431 1109.22 135.957 1109.22 130.436C1109.22 124.915 1113.7 120.442 1119.22 120.442C1124.74 120.442 1129.21 124.915 1129.21 130.436Z" fill="white" stroke="#FFE749" stroke-width="5" stroke-miterlimit="10"/>
<path d="M1188.62 276.315C1193.03 276.315 1196.6 272.745 1196.6 268.341C1196.6 263.938 1193.03 260.368 1188.62 260.368C1184.22 260.368 1180.65 263.938 1180.65 268.341C1180.65 272.745 1184.22 276.315 1188.62 276.315Z" fill="white" stroke="#FFE749" stroke-width="5" stroke-miterlimit="10"/>
<path d="M636.19 135.848C636.19 141.204 631.847 145.546 626.491 145.546C621.135 145.546 616.793 141.204 616.793 135.848C616.793 130.492 621.135 126.15 626.491 126.15C631.847 126.153 636.19 130.492 636.19 135.848Z" fill="white" stroke="#FFE749" stroke-width="5" stroke-miterlimit="10"/>
<path d="M651.906 272.328C651.906 274.53 650.121 276.315 647.919 276.315C645.717 276.315 643.932 274.53 643.932 272.328C643.932 270.126 645.717 268.341 647.919 268.341C650.121 268.341 651.906 270.126 651.906 272.328Z" fill="white" stroke="#FFE749" stroke-width="5" stroke-miterlimit="10"/>
<path d="M569.467 373.429C575.465 373.429 580.328 368.566 580.328 362.568C580.328 356.57 575.465 351.708 569.467 351.708C563.469 351.708 558.607 356.57 558.607 362.568C558.607 368.566 563.469 373.429 569.467 373.429Z" fill="white" stroke="#FFE749" stroke-width="5" stroke-miterlimit="10"/>
<path d="M806.472 131.269C806.472 134.094 804.18 136.385 801.356 136.385C798.531 136.385 796.24 134.094 796.24 131.269C796.24 128.445 798.531 126.153 801.356 126.153C804.18 126.153 806.472 128.441 806.472 131.269Z" fill="white" stroke="#FFE749" stroke-width="5" stroke-miterlimit="10"/>
<path d="M932.341 218.372L979.756 175.652" stroke="#FFE749" stroke-width="5" stroke-miterlimit="10"/>
<path d="M948.597 247.997L1002.39 233.716" stroke="#FFE749" stroke-width="5" stroke-miterlimit="10"/>
<path d="M952.419 276.314L1009.76 290.236" stroke="#FFE749" stroke-width="5" stroke-miterlimit="10"/>
<path d="M700.123 233.716L640.124 213.964" stroke="#FFE749" stroke-width="5" stroke-miterlimit="10"/>
<path d="M693.266 297.495L630.382 313.676" stroke="#FFE749" stroke-width="5" stroke-miterlimit="10"/>
<path d="M705.355 331.6L651.906 386.485" stroke="#FFE749" stroke-width="5" stroke-miterlimit="10"/>
<path d="M591.787 266.814C587.024 263.13 582.26 259.446 577.496 255.766C573.862 252.955 563.673 247.776 561.649 243.51C562.304 244.889 561.497 245.445 562.916 243.365C563.683 242.239 564.598 241.189 565.431 240.112C567.815 237.031 570.195 233.95 572.578 230.872C575.393 227.231 578.208 223.59 581.026 219.949C581.677 219.106 585.493 214.669 584.071 215.011C582.879 215.294 587.139 217.961 588.232 218.807C591.593 221.404 594.954 224.005 598.315 226.602C601.676 229.199 605.037 231.8 608.398 234.398C609.241 235.049 613.679 238.865 613.337 237.439C613.053 236.248 610.387 240.507 609.541 241.6C606.943 244.962 604.343 248.323 601.745 251.684C597.844 256.727 593.947 261.771 590.046 266.814C589.084 268.055 590.819 269.816 591.79 268.559C599.589 258.472 607.388 248.385 615.19 238.299C615.555 237.825 615.769 236.998 615.19 236.554C605.103 228.755 595.016 220.956 584.93 213.158C584.456 212.792 583.633 212.578 583.185 213.158C575.386 223.244 567.588 233.331 559.785 243.418C559.42 243.892 559.206 244.718 559.785 245.162C569.872 252.961 579.959 260.76 590.046 268.562C591.283 269.52 593.045 267.782 591.787 266.814Z" fill="white"/>
<path d="M950.51 82.1426C945.746 78.4589 940.983 74.7751 936.219 71.0947C932.585 68.2833 922.396 63.105 920.371 58.8385C921.027 60.2179 920.22 60.7742 921.639 58.6937C922.406 57.5678 923.321 56.5177 924.154 55.4412C926.537 52.3599 928.918 49.2786 931.301 46.2005C934.116 42.5596 936.93 38.9187 939.748 35.2777C940.4 34.4349 944.215 29.9973 942.79 30.3397C941.598 30.6228 945.858 33.2893 946.951 34.1354C950.312 36.7328 953.673 39.3334 957.034 41.9308C960.396 44.5282 963.757 47.1289 967.118 49.7263C967.961 50.3781 972.395 54.1935 972.056 52.7681C971.773 51.5764 969.106 55.8362 968.26 56.9292C965.663 60.2903 963.062 63.6514 960.465 67.0126C956.564 72.0559 952.666 77.0993 948.765 82.1426C947.804 83.3837 949.539 85.1449 950.51 83.8874C958.308 73.8007 966.107 63.714 973.906 53.6273C974.271 53.1533 974.485 52.327 973.906 51.8825C963.819 44.0838 953.733 36.285 943.646 28.483C943.172 28.1176 942.346 27.9036 941.901 28.483C934.102 38.5697 926.304 48.6564 918.502 58.7431C918.136 59.2171 917.922 60.0434 918.502 60.4878C928.588 68.2866 938.675 76.0853 948.762 83.8874C950.006 84.8486 951.764 83.1138 950.51 82.1426Z" fill="white"/>
<path d="M818.576 594.523C814.85 590.796 811.126 587.07 807.4 583.346C804.457 580.403 796.431 574.972 795.002 570.949C795.776 573.135 794.571 572.354 796.312 571.196C797.247 570.573 798.07 569.438 798.857 568.651C801.267 566.241 803.677 563.831 806.086 561.422C808.934 558.574 811.782 555.726 814.629 552.879C815.419 552.089 819.231 548.935 817.704 549.027C816.275 549.113 819.985 552.086 820.779 552.879C823.406 555.509 826.036 558.136 828.666 560.767C831.293 563.397 833.924 566.024 836.554 568.654C837.344 569.444 840.498 573.256 840.406 571.729C840.32 570.3 837.347 574.01 836.554 574.804C833.924 577.434 831.297 580.061 828.666 582.691C824.722 586.635 820.779 590.579 816.831 594.526C815.706 595.652 817.45 597.397 818.576 596.271C826.467 588.383 834.355 580.492 842.246 572.601C842.716 572.131 842.72 571.327 842.246 570.857C834.358 562.966 826.467 555.078 818.576 547.187C818.105 546.716 817.302 546.716 816.831 547.187C808.944 555.078 801.053 562.966 793.162 570.857C792.691 571.327 792.691 572.131 793.162 572.601C801.05 580.489 808.941 588.38 816.831 596.271C817.954 597.393 819.702 595.649 818.576 594.523Z" fill="white"/>
<path d="M631.574 448.315C636.565 434.643 641.559 420.972 646.553 407.3C647.099 405.805 644.713 405.16 644.173 406.645C639.179 420.316 634.188 433.988 629.194 447.66C628.648 449.151 631.031 449.796 631.574 448.315Z" fill="white"/>
<path d="M622.248 416.303C632.838 423.77 643.429 431.233 654.019 438.699C655.319 439.617 656.554 437.478 655.263 436.566C644.673 429.099 634.083 421.636 623.492 414.17C622.192 413.255 620.957 415.395 622.248 416.303Z" fill="white"/>
<path d="M620.345 435.275C633.79 429.866 647.238 424.458 660.682 419.049C662.137 418.463 661.502 416.073 660.027 416.669C646.582 422.078 633.135 427.486 619.69 432.895C618.232 433.478 618.867 435.868 620.345 435.275Z" fill="white"/>
<path d="M645.124 442.481C641.793 431.631 638.461 420.784 635.13 409.933C634.665 408.419 632.282 409.064 632.749 410.589C636.081 421.439 639.412 432.286 642.744 443.136C643.208 444.651 645.592 444.006 645.124 442.481Z" fill="white"/>
<path d="M710.849 65.9261C717.96 46.4507 725.074 26.9752 732.184 7.49642C732.731 6.00185 730.344 5.35663 729.804 6.84132C722.694 26.3168 715.579 45.7923 708.469 65.271C707.922 66.7656 710.309 67.4075 710.849 65.9261Z" fill="white"/>
<path d="M698.336 20.0158C713.423 30.649 728.507 41.2821 743.591 51.9186C744.891 52.8371 746.126 50.6973 744.839 49.7854C729.755 39.1522 714.668 28.5191 699.584 17.8826C698.28 16.9674 697.046 19.1072 698.336 20.0158Z" fill="white"/>
<path d="M695.218 46.984C714.371 39.2807 733.524 31.5741 752.68 23.8676C754.135 23.2816 753.5 20.8916 752.025 21.4874C732.872 29.1907 713.719 36.8973 694.567 44.6039C693.108 45.1899 693.744 47.5798 695.218 46.984Z" fill="white"/>
<path d="M730.15 57.897C725.403 42.4444 720.659 26.9885 715.912 11.5325C715.448 10.0182 713.061 10.6634 713.532 12.1876C718.279 27.6403 723.023 43.0962 727.77 58.5522C728.234 60.0665 730.621 59.4212 730.15 57.897Z" fill="white"/>
<path d="M906.166 684.598C912.326 667.727 918.488 650.855 924.648 633.984C925.194 632.489 922.808 631.844 922.268 633.329C916.108 650.2 909.946 667.072 903.786 683.943C903.24 685.438 905.623 686.083 906.166 684.598Z" fill="white"/>
<path d="M895.082 644.926C908.152 654.138 921.217 663.348 934.287 672.563C935.587 673.481 936.822 671.341 935.534 670.43C922.465 661.219 909.399 652.004 896.33 642.793C895.026 641.878 893.792 644.018 895.082 644.926Z" fill="white"/>
<path d="M892.511 668.306C909.103 661.63 925.695 654.957 942.29 648.281C943.745 647.695 943.109 645.305 941.634 645.901C925.043 652.574 908.451 659.25 891.856 665.926C890.398 666.512 891.033 668.899 892.511 668.306Z" fill="white"/>
<path d="M922.887 677.557C918.775 664.168 914.663 650.779 910.551 637.391C910.087 635.877 907.704 636.522 908.171 638.046C912.283 651.435 916.395 664.823 920.506 678.212C920.97 679.726 923.354 679.081 922.887 677.557Z" fill="white"/>
<path d="M1064.61 266.491C1067.99 257.214 1071.38 247.938 1074.77 238.661C1075.32 237.166 1072.93 236.521 1072.39 238.006C1069 247.282 1065.61 256.559 1062.23 265.836C1061.68 267.331 1064.06 267.976 1064.61 266.491Z" fill="white"/>
<path d="M1057.7 245.011C1064.88 250.077 1072.07 255.141 1079.25 260.207C1080.55 261.125 1081.79 258.986 1080.5 258.074C1073.31 253.007 1066.13 247.944 1058.94 242.878C1057.64 241.959 1056.41 244.099 1057.7 245.011Z" fill="white"/>
<path d="M1056.71 257.922C1065.83 254.252 1074.96 250.581 1084.08 246.911C1085.53 246.325 1084.9 243.935 1083.42 244.53C1074.3 248.201 1065.18 251.872 1056.05 255.542C1054.6 256.125 1055.23 258.515 1056.71 257.922Z" fill="white"/>
<path d="M1073.8 262.324C1071.54 254.963 1069.28 247.602 1067.02 240.238C1066.56 238.723 1064.17 239.368 1064.64 240.893C1066.9 248.254 1069.16 255.615 1071.42 262.979C1071.89 264.493 1074.27 263.848 1073.8 262.324Z" fill="white"/>
<path d="M761.374 183.503L740.306 89.2664" stroke="#FFE749" stroke-width="5" stroke-miterlimit="10"/>
<path d="M736.958 197.014L696.483 145.546" stroke="#FFE749" stroke-width="5" stroke-miterlimit="10"/>
<path d="M892.38 189.215L920.681 136.385" stroke="#FFE749" stroke-width="5" stroke-miterlimit="10"/>
</g>
<defs>
<clipPath id="clip0_213_684">
<rect width="1646" height="1646" fill="white"/>
</clipPath>
</defs>
</svg>
